<mxfile host="app.diagrams.net" agent="Mozilla/5.0 (Macintosh; Intel Mac OS X 10_15_7) AppleWebKit/537.36 (KHTML, like Gecko) Chrome/131.0.0.0 Safari/537.36" version="26.0.5">
  <diagram name="Page-1" id="QeEp_9ObvdgNzG1h11Eg">
    <mxGraphModel dx="2284" dy="761" grid="1" gridSize="10" guides="1" tooltips="1" connect="1" arrows="1" fold="1" page="1" pageScale="1" pageWidth="850" pageHeight="1100" math="0" shadow="0">
      <root>
        <mxCell id="0" />
        <mxCell id="1" parent="0" />
        <mxCell id="GsqYDPgXl572xGJpyq0Q-127" value="" style="rounded=0;whiteSpace=wrap;html=1;fillColor=#fad9d5;strokeColor=#ae4132;" parent="1" vertex="1">
          <mxGeometry x="-270" y="245" width="380" height="60" as="geometry" />
        </mxCell>
        <mxCell id="GsqYDPgXl572xGJpyq0Q-2" value="" style="rounded=0;whiteSpace=wrap;html=1;fillColor=#dae8fc;strokeColor=#6c8ebf;" parent="1" vertex="1">
          <mxGeometry x="160" y="150" width="390" height="385" as="geometry" />
        </mxCell>
        <mxCell id="GsqYDPgXl572xGJpyq0Q-9" value="&lt;div&gt;&lt;font style=&quot;font-size: 14px;&quot;&gt;&lt;b style=&quot;&quot;&gt;namespace&lt;/b&gt;&lt;/font&gt;&lt;/div&gt;&lt;font style=&quot;font-size: 14px;&quot;&gt;&lt;b style=&quot;&quot;&gt;public-gateway-http&lt;/b&gt;&lt;/font&gt;" style="text;html=1;align=center;verticalAlign=middle;whiteSpace=wrap;rounded=0;" parent="1" vertex="1">
          <mxGeometry x="235" y="165" width="240" height="50" as="geometry" />
        </mxCell>
        <mxCell id="GsqYDPgXl572xGJpyq0Q-13" value="" style="rounded=0;whiteSpace=wrap;html=1;fillColor=#fff2cc;strokeColor=#d6b656;" parent="1" vertex="1">
          <mxGeometry x="280" y="255" width="225" height="40" as="geometry" />
        </mxCell>
        <mxCell id="GsqYDPgXl572xGJpyq0Q-14" value="&lt;span style=&quot;font-size: 14px;&quot;&gt;&lt;b&gt;kong-gateway-hotels&lt;/b&gt;&lt;/span&gt;" style="text;html=1;align=center;verticalAlign=middle;whiteSpace=wrap;rounded=0;" parent="1" vertex="1">
          <mxGeometry x="310" y="260" width="160" height="30" as="geometry" />
        </mxCell>
        <mxCell id="GsqYDPgXl572xGJpyq0Q-15" value="" style="rounded=0;whiteSpace=wrap;html=1;fillColor=#fff2cc;strokeColor=#d6b656;" parent="1" vertex="1">
          <mxGeometry x="280" y="355" width="230" height="43" as="geometry" />
        </mxCell>
        <mxCell id="GsqYDPgXl572xGJpyq0Q-16" value="&lt;span style=&quot;font-size: 14px;&quot;&gt;&lt;b&gt;kong-gateway-flights&lt;/b&gt;&lt;/span&gt;" style="text;html=1;align=center;verticalAlign=middle;whiteSpace=wrap;rounded=0;" parent="1" vertex="1">
          <mxGeometry x="310" y="362" width="170" height="30" as="geometry" />
        </mxCell>
        <mxCell id="GsqYDPgXl572xGJpyq0Q-18" value="" style="rounded=0;whiteSpace=wrap;html=1;fillColor=#fff2cc;strokeColor=#d6b656;" parent="1" vertex="1">
          <mxGeometry x="280" y="445" width="235" height="45" as="geometry" />
        </mxCell>
        <mxCell id="GsqYDPgXl572xGJpyq0Q-19" value="&lt;span style=&quot;font-size: 14px;&quot;&gt;&lt;b&gt;kong-gateway-common-teams&lt;/b&gt;&lt;/span&gt;" style="text;html=1;align=center;verticalAlign=middle;whiteSpace=wrap;rounded=0;" parent="1" vertex="1">
          <mxGeometry x="300" y="455" width="205" height="30" as="geometry" />
        </mxCell>
        <mxCell id="GsqYDPgXl572xGJpyq0Q-20" value="" style="rounded=0;whiteSpace=wrap;html=1;fillColor=#dae8fc;strokeColor=#6c8ebf;" parent="1" vertex="1">
          <mxGeometry x="165" y="720" width="370" height="210" as="geometry" />
        </mxCell>
        <mxCell id="GsqYDPgXl572xGJpyq0Q-21" value="&lt;div&gt;&lt;font style=&quot;font-size: 14px;&quot;&gt;&lt;b style=&quot;&quot;&gt;namespace&lt;/b&gt;&lt;/font&gt;&lt;/div&gt;&lt;font style=&quot;font-size: 14px;&quot;&gt;&lt;b style=&quot;&quot;&gt;private-gateway-http&lt;/b&gt;&lt;/font&gt;" style="text;html=1;align=center;verticalAlign=middle;whiteSpace=wrap;rounded=0;" parent="1" vertex="1">
          <mxGeometry x="230" y="740" width="240" height="50" as="geometry" />
        </mxCell>
        <mxCell id="GsqYDPgXl572xGJpyq0Q-22" value="" style="rounded=0;whiteSpace=wrap;html=1;fillColor=#fff2cc;strokeColor=#d6b656;" parent="1" vertex="1">
          <mxGeometry x="300" y="820" width="215" height="50" as="geometry" />
        </mxCell>
        <mxCell id="GsqYDPgXl572xGJpyq0Q-23" value="&lt;span style=&quot;font-size: 14px;&quot;&gt;&lt;b&gt;kong-gateway-private-common-teams&lt;/b&gt;&lt;/span&gt;" style="text;html=1;align=center;verticalAlign=middle;whiteSpace=wrap;rounded=0;" parent="1" vertex="1">
          <mxGeometry x="310" y="830" width="185" height="30" as="geometry" />
        </mxCell>
        <mxCell id="GsqYDPgXl572xGJpyq0Q-28" value="" style="rounded=0;whiteSpace=wrap;html=1;fillColor=#dae8fc;strokeColor=#6c8ebf;" parent="1" vertex="1">
          <mxGeometry x="160" y="950" width="375" height="210" as="geometry" />
        </mxCell>
        <mxCell id="GsqYDPgXl572xGJpyq0Q-29" value="&lt;div&gt;&lt;font style=&quot;font-size: 14px;&quot;&gt;&lt;b style=&quot;&quot;&gt;namespace&lt;/b&gt;&lt;/font&gt;&lt;/div&gt;&lt;font style=&quot;font-size: 14px;&quot;&gt;&lt;b style=&quot;&quot;&gt;private-gateway-nonhttp&lt;/b&gt;&lt;/font&gt;" style="text;html=1;align=center;verticalAlign=middle;whiteSpace=wrap;rounded=0;" parent="1" vertex="1">
          <mxGeometry x="227.5" y="950" width="240" height="50" as="geometry" />
        </mxCell>
        <mxCell id="GsqYDPgXl572xGJpyq0Q-30" value="" style="rounded=0;whiteSpace=wrap;html=1;fillColor=#fff2cc;strokeColor=#d6b656;" parent="1" vertex="1">
          <mxGeometry x="290" y="1050" width="220" height="60" as="geometry" />
        </mxCell>
        <mxCell id="GsqYDPgXl572xGJpyq0Q-31" value="&lt;span style=&quot;font-size: 14px;&quot;&gt;&lt;b&gt;kong-gateway-common-teams-nonhttp&lt;/b&gt;&lt;/span&gt;" style="text;html=1;align=center;verticalAlign=middle;whiteSpace=wrap;rounded=0;" parent="1" vertex="1">
          <mxGeometry x="315" y="1065" width="180" height="30" as="geometry" />
        </mxCell>
        <mxCell id="GsqYDPgXl572xGJpyq0Q-32" value="" style="outlineConnect=0;dashed=0;verticalLabelPosition=bottom;verticalAlign=top;align=center;html=1;shape=mxgraph.aws3.application_load_balancer;fillColor=#F58534;gradientColor=none;" parent="1" vertex="1">
          <mxGeometry x="192.5" y="245" width="60" height="60" as="geometry" />
        </mxCell>
        <mxCell id="GsqYDPgXl572xGJpyq0Q-33" value="" style="outlineConnect=0;dashed=0;verticalLabelPosition=bottom;verticalAlign=top;align=center;html=1;shape=mxgraph.aws3.application_load_balancer;fillColor=#F58534;gradientColor=none;" parent="1" vertex="1">
          <mxGeometry x="192.5" y="342" width="60" height="60" as="geometry" />
        </mxCell>
        <mxCell id="GsqYDPgXl572xGJpyq0Q-34" value="" style="outlineConnect=0;dashed=0;verticalLabelPosition=bottom;verticalAlign=top;align=center;html=1;shape=mxgraph.aws3.application_load_balancer;fillColor=#F58534;gradientColor=none;" parent="1" vertex="1">
          <mxGeometry x="195" y="447" width="60" height="56" as="geometry" />
        </mxCell>
        <mxCell id="GsqYDPgXl572xGJpyq0Q-35" value="" style="endArrow=classic;html=1;rounded=0;" parent="1" edge="1">
          <mxGeometry width="50" height="50" relative="1" as="geometry">
            <mxPoint x="252.5" y="280" as="sourcePoint" />
            <mxPoint x="272.5" y="280" as="targetPoint" />
          </mxGeometry>
        </mxCell>
        <mxCell id="GsqYDPgXl572xGJpyq0Q-36" value="" style="endArrow=classic;html=1;rounded=0;" parent="1" edge="1">
          <mxGeometry width="50" height="50" relative="1" as="geometry">
            <mxPoint x="255" y="376.5" as="sourcePoint" />
            <mxPoint x="280" y="377" as="targetPoint" />
          </mxGeometry>
        </mxCell>
        <mxCell id="GsqYDPgXl572xGJpyq0Q-37" value="" style="endArrow=classic;html=1;rounded=0;" parent="1" edge="1">
          <mxGeometry width="50" height="50" relative="1" as="geometry">
            <mxPoint x="255" y="474.5" as="sourcePoint" />
            <mxPoint x="280" y="475" as="targetPoint" />
          </mxGeometry>
        </mxCell>
        <mxCell id="GsqYDPgXl572xGJpyq0Q-38" value="" style="outlineConnect=0;dashed=0;verticalLabelPosition=bottom;verticalAlign=top;align=center;html=1;shape=mxgraph.aws3.application_load_balancer;fillColor=#F58534;gradientColor=none;" parent="1" vertex="1">
          <mxGeometry x="190" y="820" width="60" height="56" as="geometry" />
        </mxCell>
        <mxCell id="GsqYDPgXl572xGJpyq0Q-39" value="" style="endArrow=classic;html=1;rounded=0;" parent="1" edge="1">
          <mxGeometry width="50" height="50" relative="1" as="geometry">
            <mxPoint x="257.5" y="849.5" as="sourcePoint" />
            <mxPoint x="290" y="850" as="targetPoint" />
          </mxGeometry>
        </mxCell>
        <mxCell id="GsqYDPgXl572xGJpyq0Q-40" value="" style="outlineConnect=0;dashed=0;verticalLabelPosition=bottom;verticalAlign=top;align=center;html=1;shape=mxgraph.aws3.application_load_balancer;fillColor=#F58534;gradientColor=none;" parent="1" vertex="1">
          <mxGeometry x="195" y="1047" width="60" height="56" as="geometry" />
        </mxCell>
        <mxCell id="GsqYDPgXl572xGJpyq0Q-41" value="" style="endArrow=classic;html=1;rounded=0;" parent="1" edge="1">
          <mxGeometry width="50" height="50" relative="1" as="geometry">
            <mxPoint x="260" y="1079.5" as="sourcePoint" />
            <mxPoint x="290" y="1080" as="targetPoint" />
          </mxGeometry>
        </mxCell>
        <mxCell id="GsqYDPgXl572xGJpyq0Q-42" value="" style="rounded=0;whiteSpace=wrap;html=1;fillColor=#dae8fc;strokeColor=#6c8ebf;" parent="1" vertex="1">
          <mxGeometry x="590" y="150" width="310" height="130" as="geometry" />
        </mxCell>
        <mxCell id="GsqYDPgXl572xGJpyq0Q-43" value="" style="rounded=0;whiteSpace=wrap;html=1;fillColor=#d5e8d4;strokeColor=#82b366;" parent="1" vertex="1">
          <mxGeometry x="600" y="210" width="100" height="40" as="geometry" />
        </mxCell>
        <mxCell id="GsqYDPgXl572xGJpyq0Q-44" value="&lt;b&gt;&lt;font style=&quot;font-size: 14px;&quot;&gt;HTTPRoute&lt;/font&gt;&lt;/b&gt;" style="text;html=1;align=center;verticalAlign=middle;whiteSpace=wrap;rounded=0;" parent="1" vertex="1">
          <mxGeometry x="605" y="215" width="90" height="30" as="geometry" />
        </mxCell>
        <mxCell id="GsqYDPgXl572xGJpyq0Q-45" value="&lt;div&gt;&lt;font style=&quot;font-size: 14px;&quot;&gt;&lt;b style=&quot;&quot;&gt;namespace&lt;/b&gt;&lt;/font&gt;&lt;/div&gt;&lt;span style=&quot;font-size: 14px;&quot;&gt;&lt;b&gt;hotels&lt;/b&gt;&lt;/span&gt;" style="text;html=1;align=center;verticalAlign=middle;whiteSpace=wrap;rounded=0;" parent="1" vertex="1">
          <mxGeometry x="680" y="150" width="110" height="50" as="geometry" />
        </mxCell>
        <mxCell id="GsqYDPgXl572xGJpyq0Q-47" value="" style="rounded=0;whiteSpace=wrap;html=1;fillColor=#bac8d3;strokeColor=#23445d;" parent="1" vertex="1">
          <mxGeometry x="750" y="210" width="120" height="40" as="geometry" />
        </mxCell>
        <mxCell id="GsqYDPgXl572xGJpyq0Q-48" value="&lt;span style=&quot;font-size: 14px;&quot;&gt;&lt;b&gt;application service&lt;/b&gt;&lt;/span&gt;" style="text;html=1;align=center;verticalAlign=middle;whiteSpace=wrap;rounded=0;" parent="1" vertex="1">
          <mxGeometry x="765" y="215" width="90" height="30" as="geometry" />
        </mxCell>
        <mxCell id="GsqYDPgXl572xGJpyq0Q-50" value="" style="endArrow=classic;html=1;rounded=0;entryX=0;entryY=0.5;entryDx=0;entryDy=0;" parent="1" target="GsqYDPgXl572xGJpyq0Q-47" edge="1">
          <mxGeometry width="50" height="50" relative="1" as="geometry">
            <mxPoint x="710" y="230" as="sourcePoint" />
            <mxPoint x="760" y="180" as="targetPoint" />
          </mxGeometry>
        </mxCell>
        <mxCell id="GsqYDPgXl572xGJpyq0Q-51" value="" style="endArrow=classic;html=1;rounded=0;entryX=0.032;entryY=0.615;entryDx=0;entryDy=0;entryPerimeter=0;" parent="1" target="GsqYDPgXl572xGJpyq0Q-42" edge="1">
          <mxGeometry width="50" height="50" relative="1" as="geometry">
            <mxPoint x="510" y="270" as="sourcePoint" />
            <mxPoint x="570" y="230" as="targetPoint" />
          </mxGeometry>
        </mxCell>
        <mxCell id="GsqYDPgXl572xGJpyq0Q-52" value="" style="rounded=0;whiteSpace=wrap;html=1;fillColor=#dae8fc;strokeColor=#6c8ebf;" parent="1" vertex="1">
          <mxGeometry x="590" y="305" width="310" height="130" as="geometry" />
        </mxCell>
        <mxCell id="GsqYDPgXl572xGJpyq0Q-53" value="" style="rounded=0;whiteSpace=wrap;html=1;fillColor=#d5e8d4;strokeColor=#82b366;" parent="1" vertex="1">
          <mxGeometry x="600" y="365" width="100" height="40" as="geometry" />
        </mxCell>
        <mxCell id="GsqYDPgXl572xGJpyq0Q-54" value="&lt;b&gt;&lt;font style=&quot;font-size: 14px;&quot;&gt;HTTPRoute&lt;/font&gt;&lt;/b&gt;" style="text;html=1;align=center;verticalAlign=middle;whiteSpace=wrap;rounded=0;" parent="1" vertex="1">
          <mxGeometry x="605" y="370" width="90" height="30" as="geometry" />
        </mxCell>
        <mxCell id="GsqYDPgXl572xGJpyq0Q-55" value="&lt;div&gt;&lt;font style=&quot;font-size: 14px;&quot;&gt;&lt;b style=&quot;&quot;&gt;namespace&lt;/b&gt;&lt;/font&gt;&lt;/div&gt;&lt;span style=&quot;font-size: 14px;&quot;&gt;&lt;b&gt;flights&lt;/b&gt;&lt;/span&gt;" style="text;html=1;align=center;verticalAlign=middle;whiteSpace=wrap;rounded=0;" parent="1" vertex="1">
          <mxGeometry x="680" y="305" width="110" height="50" as="geometry" />
        </mxCell>
        <mxCell id="GsqYDPgXl572xGJpyq0Q-56" value="" style="rounded=0;whiteSpace=wrap;html=1;fillColor=#bac8d3;strokeColor=#23445d;" parent="1" vertex="1">
          <mxGeometry x="750" y="365" width="120" height="40" as="geometry" />
        </mxCell>
        <mxCell id="GsqYDPgXl572xGJpyq0Q-57" value="&lt;span style=&quot;font-size: 14px;&quot;&gt;&lt;b&gt;application service&lt;/b&gt;&lt;/span&gt;" style="text;html=1;align=center;verticalAlign=middle;whiteSpace=wrap;rounded=0;" parent="1" vertex="1">
          <mxGeometry x="765" y="370" width="90" height="30" as="geometry" />
        </mxCell>
        <mxCell id="GsqYDPgXl572xGJpyq0Q-58" value="" style="endArrow=classic;html=1;rounded=0;entryX=0;entryY=0.5;entryDx=0;entryDy=0;" parent="1" target="GsqYDPgXl572xGJpyq0Q-56" edge="1">
          <mxGeometry width="50" height="50" relative="1" as="geometry">
            <mxPoint x="710" y="385" as="sourcePoint" />
            <mxPoint x="760" y="335" as="targetPoint" />
          </mxGeometry>
        </mxCell>
        <mxCell id="GsqYDPgXl572xGJpyq0Q-59" value="" style="endArrow=classic;html=1;rounded=0;entryX=0.013;entryY=0.585;entryDx=0;entryDy=0;entryPerimeter=0;" parent="1" target="GsqYDPgXl572xGJpyq0Q-52" edge="1">
          <mxGeometry width="50" height="50" relative="1" as="geometry">
            <mxPoint x="510" y="380" as="sourcePoint" />
            <mxPoint x="590" y="330" as="targetPoint" />
          </mxGeometry>
        </mxCell>
        <mxCell id="GsqYDPgXl572xGJpyq0Q-60" value="" style="rounded=0;whiteSpace=wrap;html=1;fillColor=#dae8fc;strokeColor=#6c8ebf;" parent="1" vertex="1">
          <mxGeometry x="590" y="445" width="310" height="130" as="geometry" />
        </mxCell>
        <mxCell id="GsqYDPgXl572xGJpyq0Q-61" value="" style="rounded=0;whiteSpace=wrap;html=1;fillColor=#d5e8d4;strokeColor=#82b366;" parent="1" vertex="1">
          <mxGeometry x="600" y="505" width="100" height="40" as="geometry" />
        </mxCell>
        <mxCell id="GsqYDPgXl572xGJpyq0Q-62" value="&lt;b&gt;&lt;font style=&quot;font-size: 14px;&quot;&gt;HTTPRoute&lt;/font&gt;&lt;/b&gt;" style="text;html=1;align=center;verticalAlign=middle;whiteSpace=wrap;rounded=0;" parent="1" vertex="1">
          <mxGeometry x="605" y="510" width="90" height="30" as="geometry" />
        </mxCell>
        <mxCell id="GsqYDPgXl572xGJpyq0Q-63" value="&lt;div&gt;&lt;font style=&quot;font-size: 14px;&quot;&gt;&lt;b style=&quot;&quot;&gt;namespace&lt;/b&gt;&lt;/font&gt;&lt;/div&gt;&lt;span style=&quot;font-size: 14px;&quot;&gt;&lt;b&gt;frontend&lt;/b&gt;&lt;/span&gt;" style="text;html=1;align=center;verticalAlign=middle;whiteSpace=wrap;rounded=0;" parent="1" vertex="1">
          <mxGeometry x="680" y="445" width="110" height="50" as="geometry" />
        </mxCell>
        <mxCell id="GsqYDPgXl572xGJpyq0Q-64" value="" style="rounded=0;whiteSpace=wrap;html=1;fillColor=#bac8d3;strokeColor=#23445d;" parent="1" vertex="1">
          <mxGeometry x="750" y="505" width="120" height="40" as="geometry" />
        </mxCell>
        <mxCell id="GsqYDPgXl572xGJpyq0Q-65" value="&lt;span style=&quot;font-size: 14px;&quot;&gt;&lt;b&gt;application service&lt;/b&gt;&lt;/span&gt;" style="text;html=1;align=center;verticalAlign=middle;whiteSpace=wrap;rounded=0;" parent="1" vertex="1">
          <mxGeometry x="770" y="510" width="85" height="30" as="geometry" />
        </mxCell>
        <mxCell id="GsqYDPgXl572xGJpyq0Q-66" value="" style="endArrow=classic;html=1;rounded=0;entryX=0;entryY=0.5;entryDx=0;entryDy=0;" parent="1" target="GsqYDPgXl572xGJpyq0Q-64" edge="1">
          <mxGeometry width="50" height="50" relative="1" as="geometry">
            <mxPoint x="710" y="525" as="sourcePoint" />
            <mxPoint x="760" y="475" as="targetPoint" />
          </mxGeometry>
        </mxCell>
        <mxCell id="GsqYDPgXl572xGJpyq0Q-67" value="" style="rounded=0;whiteSpace=wrap;html=1;fillColor=#dae8fc;strokeColor=#6c8ebf;" parent="1" vertex="1">
          <mxGeometry x="590" y="590" width="310" height="130" as="geometry" />
        </mxCell>
        <mxCell id="GsqYDPgXl572xGJpyq0Q-68" value="" style="rounded=0;whiteSpace=wrap;html=1;fillColor=#d5e8d4;strokeColor=#82b366;" parent="1" vertex="1">
          <mxGeometry x="600" y="650" width="100" height="40" as="geometry" />
        </mxCell>
        <mxCell id="GsqYDPgXl572xGJpyq0Q-69" value="&lt;b&gt;&lt;font style=&quot;font-size: 14px;&quot;&gt;HTTPRoute&lt;/font&gt;&lt;/b&gt;" style="text;html=1;align=center;verticalAlign=middle;whiteSpace=wrap;rounded=0;" parent="1" vertex="1">
          <mxGeometry x="605" y="655" width="90" height="30" as="geometry" />
        </mxCell>
        <mxCell id="GsqYDPgXl572xGJpyq0Q-70" value="&lt;div&gt;&lt;font style=&quot;font-size: 14px;&quot;&gt;&lt;b style=&quot;&quot;&gt;namespace&lt;/b&gt;&lt;/font&gt;&lt;/div&gt;&lt;span style=&quot;font-size: 14px;&quot;&gt;&lt;b&gt;backend&lt;/b&gt;&lt;/span&gt;" style="text;html=1;align=center;verticalAlign=middle;whiteSpace=wrap;rounded=0;" parent="1" vertex="1">
          <mxGeometry x="680" y="590" width="110" height="50" as="geometry" />
        </mxCell>
        <mxCell id="GsqYDPgXl572xGJpyq0Q-71" value="" style="rounded=0;whiteSpace=wrap;html=1;fillColor=#bac8d3;strokeColor=#23445d;" parent="1" vertex="1">
          <mxGeometry x="750" y="650" width="120" height="40" as="geometry" />
        </mxCell>
        <mxCell id="GsqYDPgXl572xGJpyq0Q-72" value="&lt;span style=&quot;font-size: 14px;&quot;&gt;&lt;b&gt;application service&lt;/b&gt;&lt;/span&gt;" style="text;html=1;align=center;verticalAlign=middle;whiteSpace=wrap;rounded=0;" parent="1" vertex="1">
          <mxGeometry x="765" y="655" width="90" height="30" as="geometry" />
        </mxCell>
        <mxCell id="GsqYDPgXl572xGJpyq0Q-73" value="" style="endArrow=classic;html=1;rounded=0;entryX=0;entryY=0.5;entryDx=0;entryDy=0;" parent="1" target="GsqYDPgXl572xGJpyq0Q-71" edge="1">
          <mxGeometry width="50" height="50" relative="1" as="geometry">
            <mxPoint x="710" y="670" as="sourcePoint" />
            <mxPoint x="760" y="620" as="targetPoint" />
          </mxGeometry>
        </mxCell>
        <mxCell id="GsqYDPgXl572xGJpyq0Q-74" value="" style="endArrow=classic;html=1;rounded=0;" parent="1" edge="1">
          <mxGeometry width="50" height="50" relative="1" as="geometry">
            <mxPoint x="515" y="485" as="sourcePoint" />
            <mxPoint x="590" y="520" as="targetPoint" />
          </mxGeometry>
        </mxCell>
        <mxCell id="GsqYDPgXl572xGJpyq0Q-82" value="" style="endArrow=classic;html=1;rounded=0;entryX=0.006;entryY=0.577;entryDx=0;entryDy=0;entryPerimeter=0;exitX=1;exitY=1;exitDx=0;exitDy=0;" parent="1" source="GsqYDPgXl572xGJpyq0Q-18" target="GsqYDPgXl572xGJpyq0Q-67" edge="1">
          <mxGeometry width="50" height="50" relative="1" as="geometry">
            <mxPoint x="520" y="490" as="sourcePoint" />
            <mxPoint x="600" y="555" as="targetPoint" />
          </mxGeometry>
        </mxCell>
        <mxCell id="GsqYDPgXl572xGJpyq0Q-83" value="" style="rounded=0;whiteSpace=wrap;html=1;fillColor=#dae8fc;strokeColor=#6c8ebf;" parent="1" vertex="1">
          <mxGeometry x="590" y="740" width="130" height="130" as="geometry" />
        </mxCell>
        <mxCell id="GsqYDPgXl572xGJpyq0Q-84" value="" style="rounded=0;whiteSpace=wrap;html=1;fillColor=#d5e8d4;strokeColor=#82b366;" parent="1" vertex="1">
          <mxGeometry x="605" y="825" width="100" height="40" as="geometry" />
        </mxCell>
        <mxCell id="GsqYDPgXl572xGJpyq0Q-85" value="&lt;b&gt;&lt;font style=&quot;font-size: 14px;&quot;&gt;HTTPRoute&lt;/font&gt;&lt;/b&gt;" style="text;html=1;align=center;verticalAlign=middle;whiteSpace=wrap;rounded=0;" parent="1" vertex="1">
          <mxGeometry x="610" y="830" width="90" height="30" as="geometry" />
        </mxCell>
        <mxCell id="GsqYDPgXl572xGJpyq0Q-86" value="&lt;div&gt;&lt;font style=&quot;font-size: 14px;&quot;&gt;&lt;b style=&quot;&quot;&gt;namespace&lt;/b&gt;&lt;/font&gt;&lt;/div&gt;&lt;span style=&quot;font-size: 14px;&quot;&gt;&lt;b&gt;infra&lt;/b&gt;&lt;/span&gt;" style="text;html=1;align=center;verticalAlign=middle;whiteSpace=wrap;rounded=0;" parent="1" vertex="1">
          <mxGeometry x="590" y="750" width="110" height="50" as="geometry" />
        </mxCell>
        <mxCell id="GsqYDPgXl572xGJpyq0Q-90" value="" style="rounded=0;whiteSpace=wrap;html=1;fillColor=#dae8fc;strokeColor=#6c8ebf;" parent="1" vertex="1">
          <mxGeometry x="760" y="740" width="130" height="130" as="geometry" />
        </mxCell>
        <mxCell id="GsqYDPgXl572xGJpyq0Q-91" value="" style="rounded=0;whiteSpace=wrap;html=1;fillColor=#bac8d3;strokeColor=#23445d;" parent="1" vertex="1">
          <mxGeometry x="770" y="825" width="100" height="40" as="geometry" />
        </mxCell>
        <mxCell id="GsqYDPgXl572xGJpyq0Q-92" value="&lt;b style=&quot;font-size: 14px;&quot;&gt;application service&lt;/b&gt;" style="text;html=1;align=center;verticalAlign=middle;whiteSpace=wrap;rounded=0;" parent="1" vertex="1">
          <mxGeometry x="775" y="830" width="90" height="30" as="geometry" />
        </mxCell>
        <mxCell id="GsqYDPgXl572xGJpyq0Q-93" value="&lt;div&gt;&lt;font style=&quot;font-size: 14px;&quot;&gt;&lt;b style=&quot;&quot;&gt;namespace&lt;/b&gt;&lt;/font&gt;&lt;/div&gt;&lt;span style=&quot;font-size: 14px;&quot;&gt;&lt;b&gt;devops&lt;/b&gt;&lt;/span&gt;" style="text;html=1;align=center;verticalAlign=middle;whiteSpace=wrap;rounded=0;" parent="1" vertex="1">
          <mxGeometry x="760" y="750" width="110" height="50" as="geometry" />
        </mxCell>
        <mxCell id="GsqYDPgXl572xGJpyq0Q-96" value="" style="endArrow=classic;html=1;rounded=0;entryX=-0.023;entryY=0.854;entryDx=0;entryDy=0;entryPerimeter=0;" parent="1" target="GsqYDPgXl572xGJpyq0Q-90" edge="1">
          <mxGeometry width="50" height="50" relative="1" as="geometry">
            <mxPoint x="710" y="850" as="sourcePoint" />
            <mxPoint x="760" y="800" as="targetPoint" />
          </mxGeometry>
        </mxCell>
        <mxCell id="GsqYDPgXl572xGJpyq0Q-97" value="" style="endArrow=classic;html=1;rounded=0;entryX=0.023;entryY=0.846;entryDx=0;entryDy=0;entryPerimeter=0;" parent="1" target="GsqYDPgXl572xGJpyq0Q-83" edge="1">
          <mxGeometry width="50" height="50" relative="1" as="geometry">
            <mxPoint x="520" y="850" as="sourcePoint" />
            <mxPoint x="570" y="800" as="targetPoint" />
          </mxGeometry>
        </mxCell>
        <mxCell id="GsqYDPgXl572xGJpyq0Q-105" value="" style="rounded=0;whiteSpace=wrap;html=1;fillColor=#dae8fc;strokeColor=#6c8ebf;" parent="1" vertex="1">
          <mxGeometry x="585" y="880" width="310" height="130" as="geometry" />
        </mxCell>
        <mxCell id="GsqYDPgXl572xGJpyq0Q-106" value="" style="rounded=0;whiteSpace=wrap;html=1;fillColor=#d5e8d4;strokeColor=#82b366;" parent="1" vertex="1">
          <mxGeometry x="595" y="940" width="100" height="40" as="geometry" />
        </mxCell>
        <mxCell id="GsqYDPgXl572xGJpyq0Q-107" value="&lt;b&gt;&lt;font style=&quot;font-size: 14px;&quot;&gt;HTTPRoute&lt;/font&gt;&lt;/b&gt;" style="text;html=1;align=center;verticalAlign=middle;whiteSpace=wrap;rounded=0;" parent="1" vertex="1">
          <mxGeometry x="600" y="945" width="90" height="30" as="geometry" />
        </mxCell>
        <mxCell id="GsqYDPgXl572xGJpyq0Q-108" value="&lt;div&gt;&lt;font style=&quot;font-size: 14px;&quot;&gt;&lt;b style=&quot;&quot;&gt;namespace&lt;/b&gt;&lt;/font&gt;&lt;/div&gt;&lt;span style=&quot;font-size: 14px;&quot;&gt;&lt;b&gt;frontend&lt;/b&gt;&lt;/span&gt;" style="text;html=1;align=center;verticalAlign=middle;whiteSpace=wrap;rounded=0;" parent="1" vertex="1">
          <mxGeometry x="675" y="880" width="110" height="50" as="geometry" />
        </mxCell>
        <mxCell id="GsqYDPgXl572xGJpyq0Q-109" value="" style="rounded=0;whiteSpace=wrap;html=1;fillColor=#bac8d3;strokeColor=#23445d;" parent="1" vertex="1">
          <mxGeometry x="745" y="940" width="120" height="40" as="geometry" />
        </mxCell>
        <mxCell id="GsqYDPgXl572xGJpyq0Q-110" value="&lt;span style=&quot;font-size: 14px;&quot;&gt;&lt;b&gt;application service&lt;/b&gt;&lt;/span&gt;" style="text;html=1;align=center;verticalAlign=middle;whiteSpace=wrap;rounded=0;" parent="1" vertex="1">
          <mxGeometry x="760" y="945" width="90" height="30" as="geometry" />
        </mxCell>
        <mxCell id="GsqYDPgXl572xGJpyq0Q-111" value="" style="endArrow=classic;html=1;rounded=0;entryX=0;entryY=0.5;entryDx=0;entryDy=0;" parent="1" target="GsqYDPgXl572xGJpyq0Q-109" edge="1">
          <mxGeometry width="50" height="50" relative="1" as="geometry">
            <mxPoint x="705" y="960" as="sourcePoint" />
            <mxPoint x="755" y="910" as="targetPoint" />
          </mxGeometry>
        </mxCell>
        <mxCell id="GsqYDPgXl572xGJpyq0Q-114" value="" style="endArrow=classic;html=1;rounded=0;entryX=0.003;entryY=0.631;entryDx=0;entryDy=0;entryPerimeter=0;" parent="1" target="GsqYDPgXl572xGJpyq0Q-105" edge="1">
          <mxGeometry width="50" height="50" relative="1" as="geometry">
            <mxPoint x="520" y="850" as="sourcePoint" />
            <mxPoint x="570" y="800" as="targetPoint" />
          </mxGeometry>
        </mxCell>
        <mxCell id="GsqYDPgXl572xGJpyq0Q-115" value="" style="rounded=0;whiteSpace=wrap;html=1;fillColor=#dae8fc;strokeColor=#6c8ebf;" parent="1" vertex="1">
          <mxGeometry x="585" y="1030" width="130" height="130" as="geometry" />
        </mxCell>
        <mxCell id="GsqYDPgXl572xGJpyq0Q-116" value="" style="rounded=0;whiteSpace=wrap;html=1;fillColor=#e1d5e7;strokeColor=#9673a6;" parent="1" vertex="1">
          <mxGeometry x="600" y="1115" width="100" height="40" as="geometry" />
        </mxCell>
        <mxCell id="GsqYDPgXl572xGJpyq0Q-117" value="&lt;b&gt;&lt;font style=&quot;font-size: 14px;&quot;&gt;TCPRoute&lt;/font&gt;&lt;/b&gt;" style="text;html=1;align=center;verticalAlign=middle;whiteSpace=wrap;rounded=0;" parent="1" vertex="1">
          <mxGeometry x="605" y="1120" width="90" height="30" as="geometry" />
        </mxCell>
        <mxCell id="GsqYDPgXl572xGJpyq0Q-118" value="&lt;div&gt;&lt;font style=&quot;font-size: 14px;&quot;&gt;&lt;b style=&quot;&quot;&gt;namespace&lt;/b&gt;&lt;/font&gt;&lt;/div&gt;&lt;span style=&quot;font-size: 14px;&quot;&gt;&lt;b&gt;infra&lt;/b&gt;&lt;/span&gt;" style="text;html=1;align=center;verticalAlign=middle;whiteSpace=wrap;rounded=0;" parent="1" vertex="1">
          <mxGeometry x="585" y="1040" width="110" height="50" as="geometry" />
        </mxCell>
        <mxCell id="GsqYDPgXl572xGJpyq0Q-119" value="" style="rounded=0;whiteSpace=wrap;html=1;fillColor=#dae8fc;strokeColor=#6c8ebf;" parent="1" vertex="1">
          <mxGeometry x="755" y="1030" width="130" height="130" as="geometry" />
        </mxCell>
        <mxCell id="GsqYDPgXl572xGJpyq0Q-120" value="" style="rounded=0;whiteSpace=wrap;html=1;fillColor=#bac8d3;strokeColor=#23445d;" parent="1" vertex="1">
          <mxGeometry x="765" y="1115" width="100" height="40" as="geometry" />
        </mxCell>
        <mxCell id="GsqYDPgXl572xGJpyq0Q-121" value="&lt;b style=&quot;font-size: 14px;&quot;&gt;application service&lt;/b&gt;" style="text;html=1;align=center;verticalAlign=middle;whiteSpace=wrap;rounded=0;" parent="1" vertex="1">
          <mxGeometry x="770" y="1120" width="90" height="30" as="geometry" />
        </mxCell>
        <mxCell id="GsqYDPgXl572xGJpyq0Q-122" value="&lt;div&gt;&lt;font style=&quot;font-size: 14px;&quot;&gt;&lt;b style=&quot;&quot;&gt;namespace&lt;/b&gt;&lt;/font&gt;&lt;/div&gt;&lt;span style=&quot;font-size: 14px;&quot;&gt;&lt;b&gt;devops&lt;/b&gt;&lt;/span&gt;" style="text;html=1;align=center;verticalAlign=middle;whiteSpace=wrap;rounded=0;" parent="1" vertex="1">
          <mxGeometry x="755" y="1040" width="110" height="50" as="geometry" />
        </mxCell>
        <mxCell id="GsqYDPgXl572xGJpyq0Q-123" value="" style="endArrow=classic;html=1;rounded=0;entryX=-0.023;entryY=0.854;entryDx=0;entryDy=0;entryPerimeter=0;" parent="1" target="GsqYDPgXl572xGJpyq0Q-119" edge="1">
          <mxGeometry width="50" height="50" relative="1" as="geometry">
            <mxPoint x="705" y="1140" as="sourcePoint" />
            <mxPoint x="755" y="1090" as="targetPoint" />
          </mxGeometry>
        </mxCell>
        <mxCell id="GsqYDPgXl572xGJpyq0Q-124" value="" style="endArrow=classic;html=1;rounded=0;entryX=0;entryY=0.75;entryDx=0;entryDy=0;exitX=1;exitY=0.5;exitDx=0;exitDy=0;" parent="1" source="GsqYDPgXl572xGJpyq0Q-30" target="GsqYDPgXl572xGJpyq0Q-115" edge="1">
          <mxGeometry width="50" height="50" relative="1" as="geometry">
            <mxPoint x="520" y="1090" as="sourcePoint" />
            <mxPoint x="570" y="1040" as="targetPoint" />
          </mxGeometry>
        </mxCell>
        <mxCell id="GsqYDPgXl572xGJpyq0Q-125" value="Client" style="sketch=0;outlineConnect=0;fontColor=#232F3E;gradientColor=none;strokeColor=#232F3E;fillColor=#ffffff;dashed=0;verticalLabelPosition=bottom;verticalAlign=top;align=center;html=1;fontSize=12;fontStyle=0;aspect=fixed;shape=mxgraph.aws4.resourceIcon;resIcon=mxgraph.aws4.client;" parent="1" vertex="1">
          <mxGeometry x="-430" y="245" width="60" height="60" as="geometry" />
        </mxCell>
        <mxCell id="GsqYDPgXl572xGJpyq0Q-126" value="&lt;p style=&quot;margin: 0px; font-variant-numeric: normal; font-variant-east-asian: normal; font-variant-alternates: normal; font-size-adjust: none; font-kerning: auto; font-optical-sizing: auto; font-feature-settings: normal; font-variation-settings: normal; font-variant-position: normal; font-variant-emoji: normal; font-stretch: normal; line-height: normal; font-family: Menlo; text-align: start;&quot; class=&quot;p1&quot;&gt;&lt;span style=&quot;font-variant-ligatures: no-common-ligatures;&quot; class=&quot;s1&quot;&gt;&lt;font style=&quot;font-size: 14px;&quot;&gt;&lt;b&gt;https://gateway-api-hotels.tajawal.io/&lt;span style=&quot;&quot; class=&quot;Apple-converted-space&quot;&gt;&amp;nbsp; &amp;nbsp;&lt;/span&gt;&lt;/b&gt;&lt;/font&gt;&lt;/span&gt;&lt;/p&gt;" style="text;html=1;align=center;verticalAlign=middle;whiteSpace=wrap;rounded=0;" parent="1" vertex="1">
          <mxGeometry x="-240" y="267" width="340" height="30" as="geometry" />
        </mxCell>
        <mxCell id="GsqYDPgXl572xGJpyq0Q-129" value="" style="endArrow=classic;html=1;rounded=0;" parent="1" edge="1">
          <mxGeometry width="50" height="50" relative="1" as="geometry">
            <mxPoint x="-360" y="274.5" as="sourcePoint" />
            <mxPoint x="-300" y="274.5" as="targetPoint" />
          </mxGeometry>
        </mxCell>
        <mxCell id="GsqYDPgXl572xGJpyq0Q-131" value="" style="endArrow=classic;html=1;rounded=0;entryX=0;entryY=0.5;entryDx=0;entryDy=0;entryPerimeter=0;" parent="1" target="GsqYDPgXl572xGJpyq0Q-32" edge="1">
          <mxGeometry width="50" height="50" relative="1" as="geometry">
            <mxPoint x="120" y="274.5" as="sourcePoint" />
            <mxPoint x="180" y="275" as="targetPoint" />
          </mxGeometry>
        </mxCell>
        <mxCell id="GsqYDPgXl572xGJpyq0Q-141" value="" style="rounded=0;whiteSpace=wrap;html=1;fillColor=#fad9d5;strokeColor=#ae4132;" parent="1" vertex="1">
          <mxGeometry x="-270" y="340" width="380" height="60" as="geometry" />
        </mxCell>
        <mxCell id="GsqYDPgXl572xGJpyq0Q-142" value="Client" style="sketch=0;outlineConnect=0;fontColor=#232F3E;gradientColor=none;strokeColor=#232F3E;fillColor=#ffffff;dashed=0;verticalLabelPosition=bottom;verticalAlign=top;align=center;html=1;fontSize=12;fontStyle=0;aspect=fixed;shape=mxgraph.aws4.resourceIcon;resIcon=mxgraph.aws4.client;" parent="1" vertex="1">
          <mxGeometry x="-430" y="332" width="60" height="60" as="geometry" />
        </mxCell>
        <mxCell id="GsqYDPgXl572xGJpyq0Q-143" value="&lt;p style=&quot;margin: 0px; font-variant-numeric: normal; font-variant-east-asian: normal; font-variant-alternates: normal; font-size-adjust: none; font-kerning: auto; font-optical-sizing: auto; font-feature-settings: normal; font-variation-settings: normal; font-variant-position: normal; font-variant-emoji: normal; font-stretch: normal; line-height: normal; font-family: Menlo; text-align: start;&quot; class=&quot;p1&quot;&gt;&lt;span style=&quot;font-variant-ligatures: no-common-ligatures;&quot; class=&quot;s1&quot;&gt;&lt;font style=&quot;font-size: 14px;&quot;&gt;&lt;b&gt;https://gateway-api-flights.tajawal.io/&lt;span style=&quot;&quot; class=&quot;Apple-converted-space&quot;&gt;&amp;nbsp; &amp;nbsp;&lt;/span&gt;&lt;/b&gt;&lt;/font&gt;&lt;/span&gt;&lt;/p&gt;" style="text;html=1;align=center;verticalAlign=middle;whiteSpace=wrap;rounded=0;" parent="1" vertex="1">
          <mxGeometry x="-240" y="362" width="340" height="30" as="geometry" />
        </mxCell>
        <mxCell id="GsqYDPgXl572xGJpyq0Q-144" value="" style="endArrow=classic;html=1;rounded=0;" parent="1" edge="1">
          <mxGeometry width="50" height="50" relative="1" as="geometry">
            <mxPoint x="-360" y="364" as="sourcePoint" />
            <mxPoint x="-300" y="364" as="targetPoint" />
          </mxGeometry>
        </mxCell>
        <mxCell id="GsqYDPgXl572xGJpyq0Q-145" value="" style="endArrow=classic;html=1;rounded=0;" parent="1" edge="1">
          <mxGeometry width="50" height="50" relative="1" as="geometry">
            <mxPoint x="120" y="369.5" as="sourcePoint" />
            <mxPoint x="180" y="370" as="targetPoint" />
          </mxGeometry>
        </mxCell>
        <mxCell id="GsqYDPgXl572xGJpyq0Q-146" value="" style="rounded=0;whiteSpace=wrap;html=1;fillColor=#fad9d5;strokeColor=#ae4132;" parent="1" vertex="1">
          <mxGeometry x="-270" y="445" width="380" height="60" as="geometry" />
        </mxCell>
        <mxCell id="GsqYDPgXl572xGJpyq0Q-147" value="Client" style="sketch=0;outlineConnect=0;fontColor=#232F3E;gradientColor=none;strokeColor=#232F3E;fillColor=#ffffff;dashed=0;verticalLabelPosition=bottom;verticalAlign=top;align=center;html=1;fontSize=12;fontStyle=0;aspect=fixed;shape=mxgraph.aws4.resourceIcon;resIcon=mxgraph.aws4.client;" parent="1" vertex="1">
          <mxGeometry x="-430" y="447" width="60" height="60" as="geometry" />
        </mxCell>
        <mxCell id="GsqYDPgXl572xGJpyq0Q-148" value="&lt;p style=&quot;margin: 0px; font-variant-numeric: normal; font-variant-east-asian: normal; font-variant-alternates: normal; font-size-adjust: none; font-kerning: auto; font-optical-sizing: auto; font-feature-settings: normal; font-variation-settings: normal; font-variant-position: normal; font-variant-emoji: normal; font-stretch: normal; line-height: normal; font-family: Menlo; text-align: start;&quot; class=&quot;p1&quot;&gt;&lt;span style=&quot;font-variant-ligatures: no-common-ligatures;&quot; class=&quot;s1&quot;&gt;&lt;font style=&quot;font-size: 14px;&quot;&gt;&lt;b&gt;https://gateway-api-frontend.tajawal.io/&lt;span style=&quot;&quot; class=&quot;Apple-converted-space&quot;&gt;&amp;nbsp; &amp;nbsp;&lt;/span&gt;&lt;/b&gt;&lt;/font&gt;&lt;/span&gt;&lt;/p&gt;" style="text;html=1;align=center;verticalAlign=middle;whiteSpace=wrap;rounded=0;" parent="1" vertex="1">
          <mxGeometry x="-260" y="460" width="370" height="30" as="geometry" />
        </mxCell>
        <mxCell id="GsqYDPgXl572xGJpyq0Q-150" value="" style="endArrow=classic;html=1;rounded=0;entryX=0;entryY=0.5;entryDx=0;entryDy=0;entryPerimeter=0;" parent="1" target="GsqYDPgXl572xGJpyq0Q-34" edge="1">
          <mxGeometry width="50" height="50" relative="1" as="geometry">
            <mxPoint x="120" y="474.5" as="sourcePoint" />
            <mxPoint x="180" y="474.5" as="targetPoint" />
          </mxGeometry>
        </mxCell>
        <mxCell id="GsqYDPgXl572xGJpyq0Q-151" value="" style="rounded=0;whiteSpace=wrap;html=1;fillColor=#fad9d5;strokeColor=#ae4132;" parent="1" vertex="1">
          <mxGeometry x="-270" y="543" width="380" height="60" as="geometry" />
        </mxCell>
        <mxCell id="GsqYDPgXl572xGJpyq0Q-152" value="Client" style="sketch=0;outlineConnect=0;fontColor=#232F3E;gradientColor=none;strokeColor=#232F3E;fillColor=#ffffff;dashed=0;verticalLabelPosition=bottom;verticalAlign=top;align=center;html=1;fontSize=12;fontStyle=0;aspect=fixed;shape=mxgraph.aws4.resourceIcon;resIcon=mxgraph.aws4.client;" parent="1" vertex="1">
          <mxGeometry x="-430" y="540" width="60" height="60" as="geometry" />
        </mxCell>
        <mxCell id="GsqYDPgXl572xGJpyq0Q-153" value="&lt;p style=&quot;margin: 0px; font-variant-numeric: normal; font-variant-east-asian: normal; font-variant-alternates: normal; font-size-adjust: none; font-kerning: auto; font-optical-sizing: auto; font-feature-settings: normal; font-variation-settings: normal; font-variant-position: normal; font-variant-emoji: normal; font-stretch: normal; line-height: normal; font-family: Menlo; text-align: start;&quot; class=&quot;p1&quot;&gt;&lt;span style=&quot;font-variant-ligatures: no-common-ligatures;&quot; class=&quot;s1&quot;&gt;&lt;font style=&quot;font-size: 14px;&quot;&gt;&lt;b&gt;https://gateway-api-backend.tajawal.io/&lt;span style=&quot;&quot; class=&quot;Apple-converted-space&quot;&gt;&amp;nbsp; &amp;nbsp;&lt;/span&gt;&lt;/b&gt;&lt;/font&gt;&lt;/span&gt;&lt;/p&gt;" style="text;html=1;align=center;verticalAlign=middle;whiteSpace=wrap;rounded=0;" parent="1" vertex="1">
          <mxGeometry x="-240" y="565" width="340" height="30" as="geometry" />
        </mxCell>
        <mxCell id="GsqYDPgXl572xGJpyq0Q-154" value="" style="endArrow=classic;html=1;rounded=0;" parent="1" edge="1">
          <mxGeometry width="50" height="50" relative="1" as="geometry">
            <mxPoint x="-360" y="572.5" as="sourcePoint" />
            <mxPoint x="-300" y="572.5" as="targetPoint" />
          </mxGeometry>
        </mxCell>
        <mxCell id="GsqYDPgXl572xGJpyq0Q-156" value="" style="endArrow=classic;html=1;rounded=0;" parent="1" edge="1">
          <mxGeometry width="50" height="50" relative="1" as="geometry">
            <mxPoint x="-360" y="474.5" as="sourcePoint" />
            <mxPoint x="-300" y="474.5" as="targetPoint" />
          </mxGeometry>
        </mxCell>
        <mxCell id="GsqYDPgXl572xGJpyq0Q-158" value="" style="endArrow=classic;html=1;rounded=0;entryX=0.145;entryY=0.855;entryDx=0;entryDy=0;entryPerimeter=0;" parent="1" target="GsqYDPgXl572xGJpyq0Q-34" edge="1">
          <mxGeometry width="50" height="50" relative="1" as="geometry">
            <mxPoint x="110" y="560" as="sourcePoint" />
            <mxPoint x="161" y="498" as="targetPoint" />
          </mxGeometry>
        </mxCell>
        <mxCell id="GsqYDPgXl572xGJpyq0Q-159" value="" style="rounded=0;whiteSpace=wrap;html=1;fillColor=#fad9d5;strokeColor=#ae4132;" parent="1" vertex="1">
          <mxGeometry x="-420" y="821.5" width="520" height="48.5" as="geometry" />
        </mxCell>
        <mxCell id="GsqYDPgXl572xGJpyq0Q-160" value="Client" style="sketch=0;outlineConnect=0;fontColor=#232F3E;gradientColor=none;strokeColor=#232F3E;fillColor=#ffffff;dashed=0;verticalLabelPosition=bottom;verticalAlign=top;align=center;html=1;fontSize=12;fontStyle=0;aspect=fixed;shape=mxgraph.aws4.resourceIcon;resIcon=mxgraph.aws4.client;" parent="1" vertex="1">
          <mxGeometry x="-600" y="815" width="60" height="60" as="geometry" />
        </mxCell>
        <mxCell id="GsqYDPgXl572xGJpyq0Q-161" value="&lt;p style=&quot;margin: 0px; font-variant-numeric: normal; font-variant-east-asian: normal; font-variant-alternates: normal; font-size-adjust: none; font-kerning: auto; font-optical-sizing: auto; font-feature-settings: normal; font-variation-settings: normal; font-variant-position: normal; font-variant-emoji: normal; font-stretch: normal; line-height: normal; font-family: Menlo; text-align: start;&quot; class=&quot;p1&quot;&gt;&lt;span style=&quot;font-variant-ligatures: no-common-ligatures;&quot; class=&quot;s1&quot;&gt;&lt;font style=&quot;font-size: 14px;&quot;&gt;&lt;b&gt;https://gateway-api-pri-infra.tajawal.io/&lt;span style=&quot;&quot; class=&quot;Apple-converted-space&quot;&gt;&amp;nbsp; &amp;nbsp;&lt;/span&gt;&lt;/b&gt;&lt;/font&gt;&lt;/span&gt;&lt;/p&gt;" style="text;html=1;align=center;verticalAlign=middle;whiteSpace=wrap;rounded=0;" parent="1" vertex="1">
          <mxGeometry x="-340" y="840" width="370" height="30" as="geometry" />
        </mxCell>
        <mxCell id="GsqYDPgXl572xGJpyq0Q-162" value="" style="endArrow=classic;html=1;rounded=0;" parent="1" edge="1">
          <mxGeometry width="50" height="50" relative="1" as="geometry">
            <mxPoint x="-520" y="845" as="sourcePoint" />
            <mxPoint x="-450" y="844.5" as="targetPoint" />
          </mxGeometry>
        </mxCell>
        <mxCell id="GsqYDPgXl572xGJpyq0Q-163" value="" style="endArrow=classic;html=1;rounded=0;entryX=0;entryY=0.5;entryDx=0;entryDy=0;entryPerimeter=0;" parent="1" target="GsqYDPgXl572xGJpyq0Q-38" edge="1">
          <mxGeometry width="50" height="50" relative="1" as="geometry">
            <mxPoint x="100" y="850" as="sourcePoint" />
            <mxPoint x="150" y="800" as="targetPoint" />
          </mxGeometry>
        </mxCell>
        <mxCell id="GsqYDPgXl572xGJpyq0Q-164" value="" style="rounded=0;whiteSpace=wrap;html=1;fillColor=#fad9d5;strokeColor=#ae4132;" parent="1" vertex="1">
          <mxGeometry x="-420" y="913" width="520" height="47" as="geometry" />
        </mxCell>
        <mxCell id="GsqYDPgXl572xGJpyq0Q-165" value="Client" style="sketch=0;outlineConnect=0;fontColor=#232F3E;gradientColor=none;strokeColor=#232F3E;fillColor=#ffffff;dashed=0;verticalLabelPosition=bottom;verticalAlign=top;align=center;html=1;fontSize=12;fontStyle=0;aspect=fixed;shape=mxgraph.aws4.resourceIcon;resIcon=mxgraph.aws4.client;" parent="1" vertex="1">
          <mxGeometry x="-600" y="915" width="60" height="60" as="geometry" />
        </mxCell>
        <mxCell id="GsqYDPgXl572xGJpyq0Q-166" value="&lt;p style=&quot;margin: 0px; font-variant-numeric: normal; font-variant-east-asian: normal; font-variant-alternates: normal; font-size-adjust: none; font-kerning: auto; font-optical-sizing: auto; font-feature-settings: normal; font-variation-settings: normal; font-variant-position: normal; font-variant-emoji: normal; font-stretch: normal; line-height: normal; font-family: Menlo; text-align: start;&quot; class=&quot;p1&quot;&gt;&lt;span style=&quot;font-variant-ligatures: no-common-ligatures;&quot; class=&quot;s1&quot;&gt;&lt;font style=&quot;font-size: 14px;&quot;&gt;&lt;b&gt;https://gateway-api-pri-frontend.tajawal.io/&lt;span style=&quot;&quot; class=&quot;Apple-converted-space&quot;&gt;&amp;nbsp; &amp;nbsp;&lt;/span&gt;&lt;/b&gt;&lt;/font&gt;&lt;/span&gt;&lt;/p&gt;" style="text;html=1;align=center;verticalAlign=middle;whiteSpace=wrap;rounded=0;" parent="1" vertex="1">
          <mxGeometry x="-350" y="930" width="390" height="30" as="geometry" />
        </mxCell>
        <mxCell id="GsqYDPgXl572xGJpyq0Q-167" value="" style="endArrow=classic;html=1;rounded=0;" parent="1" edge="1">
          <mxGeometry width="50" height="50" relative="1" as="geometry">
            <mxPoint x="-530" y="945" as="sourcePoint" />
            <mxPoint x="-450" y="944.5" as="targetPoint" />
          </mxGeometry>
        </mxCell>
        <mxCell id="GsqYDPgXl572xGJpyq0Q-168" value="" style="endArrow=classic;html=1;rounded=0;entryX=0.145;entryY=0.855;entryDx=0;entryDy=0;entryPerimeter=0;" parent="1" target="GsqYDPgXl572xGJpyq0Q-38" edge="1">
          <mxGeometry width="50" height="50" relative="1" as="geometry">
            <mxPoint x="100" y="940" as="sourcePoint" />
            <mxPoint x="150" y="890" as="targetPoint" />
          </mxGeometry>
        </mxCell>
        <mxCell id="GsqYDPgXl572xGJpyq0Q-169" value="" style="rounded=0;whiteSpace=wrap;html=1;fillColor=#fad9d5;strokeColor=#ae4132;" parent="1" vertex="1">
          <mxGeometry x="-420" y="1023" width="510" height="47" as="geometry" />
        </mxCell>
        <mxCell id="GsqYDPgXl572xGJpyq0Q-170" value="Client" style="sketch=0;outlineConnect=0;fontColor=#232F3E;gradientColor=none;strokeColor=#232F3E;fillColor=#ffffff;dashed=0;verticalLabelPosition=bottom;verticalAlign=top;align=center;html=1;fontSize=12;fontStyle=0;aspect=fixed;shape=mxgraph.aws4.resourceIcon;resIcon=mxgraph.aws4.client;" parent="1" vertex="1">
          <mxGeometry x="-600" y="1016.5" width="60" height="60" as="geometry" />
        </mxCell>
        <mxCell id="GsqYDPgXl572xGJpyq0Q-171" value="&lt;p style=&quot;margin: 0px; font-variant-numeric: normal; font-variant-east-asian: normal; font-variant-alternates: normal; font-size-adjust: none; font-kerning: auto; font-optical-sizing: auto; font-feature-settings: normal; font-variation-settings: normal; font-variant-position: normal; font-variant-emoji: normal; font-stretch: normal; line-height: normal; font-family: Menlo; text-align: start;&quot; class=&quot;p1&quot;&gt;&lt;span style=&quot;font-size: 14px; font-variant-ligatures: no-common-ligatures;&quot;&gt;&lt;b&gt;telnet&amp;nbsp;&lt;/b&gt;&lt;/span&gt;&lt;b style=&quot;font-size: 14px; font-variant-ligatures: no-common-ligatures;&quot;&gt;gateway-api-tcp-infra.tajawal.io&lt;/b&gt;&lt;span style=&quot;font-size: 14px; font-variant-ligatures: no-common-ligatures;&quot;&gt;&lt;b&gt;&amp;nbsp;9000&lt;/b&gt;&lt;/span&gt;&lt;/p&gt;" style="text;html=1;align=center;verticalAlign=middle;whiteSpace=wrap;rounded=0;" parent="1" vertex="1">
          <mxGeometry x="-360" y="1031.5" width="390" height="30" as="geometry" />
        </mxCell>
        <mxCell id="GsqYDPgXl572xGJpyq0Q-172" value="" style="endArrow=classic;html=1;rounded=0;" parent="1" edge="1">
          <mxGeometry width="50" height="50" relative="1" as="geometry">
            <mxPoint x="-530" y="1048" as="sourcePoint" />
            <mxPoint x="-450" y="1047.5" as="targetPoint" />
          </mxGeometry>
        </mxCell>
        <mxCell id="GsqYDPgXl572xGJpyq0Q-173" value="" style="endArrow=classic;html=1;rounded=0;entryX=0;entryY=0.5;entryDx=0;entryDy=0;entryPerimeter=0;" parent="1" target="GsqYDPgXl572xGJpyq0Q-40" edge="1">
          <mxGeometry width="50" height="50" relative="1" as="geometry">
            <mxPoint x="90" y="1050" as="sourcePoint" />
            <mxPoint x="140" y="1000" as="targetPoint" />
          </mxGeometry>
        </mxCell>
        <mxCell id="GsqYDPgXl572xGJpyq0Q-174" value="" style="rounded=0;whiteSpace=wrap;html=1;fillColor=#fad9d5;strokeColor=#ae4132;" parent="1" vertex="1">
          <mxGeometry x="-420" y="1106.5" width="510" height="47" as="geometry" />
        </mxCell>
        <mxCell id="GsqYDPgXl572xGJpyq0Q-175" value="Client" style="sketch=0;outlineConnect=0;fontColor=#232F3E;gradientColor=none;strokeColor=#232F3E;fillColor=#ffffff;dashed=0;verticalLabelPosition=bottom;verticalAlign=top;align=center;html=1;fontSize=12;fontStyle=0;aspect=fixed;shape=mxgraph.aws4.resourceIcon;resIcon=mxgraph.aws4.client;" parent="1" vertex="1">
          <mxGeometry x="-600" y="1105" width="60" height="60" as="geometry" />
        </mxCell>
        <mxCell id="GsqYDPgXl572xGJpyq0Q-176" value="&lt;p style=&quot;margin: 0px; font-variant-numeric: normal; font-variant-east-asian: normal; font-variant-alternates: normal; font-size-adjust: none; font-kerning: auto; font-optical-sizing: auto; font-feature-settings: normal; font-variation-settings: normal; font-variant-position: normal; font-variant-emoji: normal; font-stretch: normal; line-height: normal; font-family: Menlo; text-align: start;&quot; class=&quot;p1&quot;&gt;&lt;span style=&quot;font-size: 14px; font-variant-ligatures: no-common-ligatures;&quot;&gt;&lt;b&gt;telnet&amp;nbsp;&lt;/b&gt;&lt;/span&gt;&lt;b style=&quot;font-size: 14px; font-variant-ligatures: no-common-ligatures;&quot;&gt;gateway-api-tcp-backend.tajawal.io&lt;/b&gt;&lt;span style=&quot;font-size: 14px; font-variant-ligatures: no-common-ligatures;&quot;&gt;&lt;b&gt;&amp;nbsp;9001&lt;/b&gt;&lt;/span&gt;&lt;/p&gt;" style="text;html=1;align=center;verticalAlign=middle;whiteSpace=wrap;rounded=0;" parent="1" vertex="1">
          <mxGeometry x="-360" y="1115" width="390" height="30" as="geometry" />
        </mxCell>
        <mxCell id="GsqYDPgXl572xGJpyq0Q-177" value="" style="endArrow=classic;html=1;rounded=0;" parent="1" edge="1">
          <mxGeometry width="50" height="50" relative="1" as="geometry">
            <mxPoint x="-530" y="1130" as="sourcePoint" />
            <mxPoint x="-450" y="1130" as="targetPoint" />
          </mxGeometry>
        </mxCell>
        <mxCell id="GsqYDPgXl572xGJpyq0Q-178" value="" style="endArrow=classic;html=1;rounded=0;" parent="1" target="GsqYDPgXl572xGJpyq0Q-40" edge="1">
          <mxGeometry width="50" height="50" relative="1" as="geometry">
            <mxPoint x="90" y="1130" as="sourcePoint" />
            <mxPoint x="140" y="1080" as="targetPoint" />
          </mxGeometry>
        </mxCell>
        <mxCell id="GsqYDPgXl572xGJpyq0Q-180" value="" style="rounded=0;whiteSpace=wrap;html=1;fillColor=#dae8fc;strokeColor=#6c8ebf;" parent="1" vertex="1">
          <mxGeometry x="585" y="1210" width="305" height="130" as="geometry" />
        </mxCell>
        <mxCell id="GsqYDPgXl572xGJpyq0Q-181" value="" style="rounded=0;whiteSpace=wrap;html=1;fillColor=#e1d5e7;strokeColor=#9673a6;" parent="1" vertex="1">
          <mxGeometry x="600" y="1270" width="100" height="40" as="geometry" />
        </mxCell>
        <mxCell id="GsqYDPgXl572xGJpyq0Q-182" value="&lt;b&gt;&lt;font style=&quot;font-size: 14px;&quot;&gt;TCPRoute&lt;/font&gt;&lt;/b&gt;" style="text;html=1;align=center;verticalAlign=middle;whiteSpace=wrap;rounded=0;" parent="1" vertex="1">
          <mxGeometry x="600" y="1275" width="90" height="30" as="geometry" />
        </mxCell>
        <mxCell id="GsqYDPgXl572xGJpyq0Q-183" value="&lt;div&gt;&lt;font style=&quot;font-size: 14px;&quot;&gt;&lt;b style=&quot;&quot;&gt;namespace&lt;/b&gt;&lt;/font&gt;&lt;/div&gt;&lt;span style=&quot;font-size: 14px;&quot;&gt;&lt;b&gt;backend&lt;/b&gt;&lt;/span&gt;" style="text;html=1;align=center;verticalAlign=middle;whiteSpace=wrap;rounded=0;" parent="1" vertex="1">
          <mxGeometry x="675" y="1210" width="110" height="50" as="geometry" />
        </mxCell>
        <mxCell id="GsqYDPgXl572xGJpyq0Q-184" value="" style="rounded=0;whiteSpace=wrap;html=1;fillColor=#bac8d3;strokeColor=#23445d;" parent="1" vertex="1">
          <mxGeometry x="745" y="1270" width="120" height="40" as="geometry" />
        </mxCell>
        <mxCell id="GsqYDPgXl572xGJpyq0Q-185" value="&lt;span style=&quot;font-size: 14px;&quot;&gt;&lt;b&gt;application service&lt;/b&gt;&lt;/span&gt;" style="text;html=1;align=center;verticalAlign=middle;whiteSpace=wrap;rounded=0;" parent="1" vertex="1">
          <mxGeometry x="760" y="1275" width="90" height="30" as="geometry" />
        </mxCell>
        <mxCell id="GsqYDPgXl572xGJpyq0Q-186" value="" style="endArrow=classic;html=1;rounded=0;entryX=0;entryY=0.5;entryDx=0;entryDy=0;" parent="1" target="GsqYDPgXl572xGJpyq0Q-184" edge="1">
          <mxGeometry width="50" height="50" relative="1" as="geometry">
            <mxPoint x="705" y="1290" as="sourcePoint" />
            <mxPoint x="755" y="1240" as="targetPoint" />
          </mxGeometry>
        </mxCell>
        <mxCell id="GsqYDPgXl572xGJpyq0Q-187" value="" style="endArrow=classic;html=1;rounded=0;entryX=0.16;entryY=-0.1;entryDx=0;entryDy=0;entryPerimeter=0;exitX=1;exitY=0.5;exitDx=0;exitDy=0;" parent="1" source="GsqYDPgXl572xGJpyq0Q-30" target="GsqYDPgXl572xGJpyq0Q-181" edge="1">
          <mxGeometry width="50" height="50" relative="1" as="geometry">
            <mxPoint x="520" y="1090" as="sourcePoint" />
            <mxPoint x="570" y="1040" as="targetPoint" />
          </mxGeometry>
        </mxCell>
        <mxCell id="GsqYDPgXl572xGJpyq0Q-188" value="" style="rounded=0;whiteSpace=wrap;html=1;fillColor=#fad9d5;strokeColor=#ae4132;" parent="1" vertex="1">
          <mxGeometry x="-425" y="1221.5" width="520" height="47" as="geometry" />
        </mxCell>
        <mxCell id="GsqYDPgXl572xGJpyq0Q-189" value="Client" style="sketch=0;outlineConnect=0;fontColor=#232F3E;gradientColor=none;strokeColor=#232F3E;fillColor=#ffffff;dashed=0;verticalLabelPosition=bottom;verticalAlign=top;align=center;html=1;fontSize=12;fontStyle=0;aspect=fixed;shape=mxgraph.aws4.resourceIcon;resIcon=mxgraph.aws4.client;" parent="1" vertex="1">
          <mxGeometry x="-600" y="1215" width="60" height="60" as="geometry" />
        </mxCell>
        <mxCell id="GsqYDPgXl572xGJpyq0Q-190" value="&lt;p style=&quot;margin: 0px; font-variant-numeric: normal; font-variant-east-asian: normal; font-variant-alternates: normal; font-size-adjust: none; font-kerning: auto; font-optical-sizing: auto; font-feature-settings: normal; font-variation-settings: normal; font-variant-position: normal; font-variant-emoji: normal; font-stretch: normal; line-height: normal; font-family: Menlo; text-align: start;&quot; class=&quot;p1&quot;&gt;&lt;font style=&quot;font-size: 14px;&quot;&gt;&lt;span style=&quot;font-variant-ligatures: no-common-ligatures; background-color: initial;&quot;&gt;&lt;font style=&quot;&quot;&gt;&lt;b style=&quot;&quot;&gt;curl -s&lt;/b&gt;&lt;/font&gt;&lt;b&gt; tftp://&lt;/b&gt;&lt;/span&gt;&lt;span style=&quot;font-weight: bold; background-color: initial; font-variant-ligatures: no-common-ligatures;&quot;&gt;gateway-api-udp-infra.tajawal.io&lt;/span&gt;&lt;span style=&quot;font-weight: bold; font-variant-ligatures: no-common-ligatures; background-color: initial;&quot;&gt;:9002/hello&lt;/span&gt;&lt;/font&gt;&lt;/p&gt;" style="text;html=1;align=center;verticalAlign=middle;whiteSpace=wrap;rounded=0;" parent="1" vertex="1">
          <mxGeometry x="-415" y="1230" width="500" height="30" as="geometry" />
        </mxCell>
        <mxCell id="GsqYDPgXl572xGJpyq0Q-191" value="" style="endArrow=classic;html=1;rounded=0;" parent="1" edge="1">
          <mxGeometry width="50" height="50" relative="1" as="geometry">
            <mxPoint x="-530" y="1251" as="sourcePoint" />
            <mxPoint x="-450" y="1250.5" as="targetPoint" />
          </mxGeometry>
        </mxCell>
        <mxCell id="GsqYDPgXl572xGJpyq0Q-193" value="" style="endArrow=classic;html=1;rounded=0;entryX=0.145;entryY=0.855;entryDx=0;entryDy=0;entryPerimeter=0;" parent="1" target="GsqYDPgXl572xGJpyq0Q-40" edge="1">
          <mxGeometry width="50" height="50" relative="1" as="geometry">
            <mxPoint x="100" y="1240" as="sourcePoint" />
            <mxPoint x="150" y="1190" as="targetPoint" />
          </mxGeometry>
        </mxCell>
        <mxCell id="GsqYDPgXl572xGJpyq0Q-203" value="" style="rounded=0;whiteSpace=wrap;html=1;fillColor=#dae8fc;strokeColor=#6c8ebf;" parent="1" vertex="1">
          <mxGeometry x="585" y="1360" width="130" height="130" as="geometry" />
        </mxCell>
        <mxCell id="GsqYDPgXl572xGJpyq0Q-204" value="" style="rounded=0;whiteSpace=wrap;html=1;fillColor=#e1d5e7;strokeColor=#9673a6;" parent="1" vertex="1">
          <mxGeometry x="600" y="1440" width="100" height="40" as="geometry" />
        </mxCell>
        <mxCell id="GsqYDPgXl572xGJpyq0Q-205" value="&lt;b&gt;&lt;font style=&quot;font-size: 14px;&quot;&gt;UDPRoute&lt;/font&gt;&lt;/b&gt;" style="text;html=1;align=center;verticalAlign=middle;whiteSpace=wrap;rounded=0;" parent="1" vertex="1">
          <mxGeometry x="605" y="1445" width="90" height="30" as="geometry" />
        </mxCell>
        <mxCell id="GsqYDPgXl572xGJpyq0Q-206" value="&lt;div&gt;&lt;font style=&quot;font-size: 14px;&quot;&gt;&lt;b style=&quot;&quot;&gt;namespace&lt;/b&gt;&lt;/font&gt;&lt;/div&gt;&lt;span style=&quot;font-size: 14px;&quot;&gt;&lt;b&gt;infra&lt;/b&gt;&lt;/span&gt;" style="text;html=1;align=center;verticalAlign=middle;whiteSpace=wrap;rounded=0;" parent="1" vertex="1">
          <mxGeometry x="585" y="1370" width="110" height="50" as="geometry" />
        </mxCell>
        <mxCell id="GsqYDPgXl572xGJpyq0Q-207" value="" style="rounded=0;whiteSpace=wrap;html=1;fillColor=#dae8fc;strokeColor=#6c8ebf;" parent="1" vertex="1">
          <mxGeometry x="755" y="1360" width="130" height="130" as="geometry" />
        </mxCell>
        <mxCell id="GsqYDPgXl572xGJpyq0Q-208" value="" style="rounded=0;whiteSpace=wrap;html=1;fillColor=#bac8d3;strokeColor=#23445d;" parent="1" vertex="1">
          <mxGeometry x="765" y="1440" width="100" height="40" as="geometry" />
        </mxCell>
        <mxCell id="GsqYDPgXl572xGJpyq0Q-209" value="&lt;b style=&quot;font-size: 14px;&quot;&gt;application service&lt;/b&gt;" style="text;html=1;align=center;verticalAlign=middle;whiteSpace=wrap;rounded=0;" parent="1" vertex="1">
          <mxGeometry x="770" y="1445" width="90" height="30" as="geometry" />
        </mxCell>
        <mxCell id="GsqYDPgXl572xGJpyq0Q-210" value="&lt;div&gt;&lt;font style=&quot;font-size: 14px;&quot;&gt;&lt;b style=&quot;&quot;&gt;namespace&lt;/b&gt;&lt;/font&gt;&lt;/div&gt;&lt;span style=&quot;font-size: 14px;&quot;&gt;&lt;b&gt;devops&lt;/b&gt;&lt;/span&gt;" style="text;html=1;align=center;verticalAlign=middle;whiteSpace=wrap;rounded=0;" parent="1" vertex="1">
          <mxGeometry x="755" y="1370" width="110" height="50" as="geometry" />
        </mxCell>
        <mxCell id="GsqYDPgXl572xGJpyq0Q-211" value="" style="endArrow=classic;html=1;rounded=0;entryX=-0.023;entryY=0.854;entryDx=0;entryDy=0;entryPerimeter=0;" parent="1" target="GsqYDPgXl572xGJpyq0Q-207" edge="1">
          <mxGeometry width="50" height="50" relative="1" as="geometry">
            <mxPoint x="705" y="1470" as="sourcePoint" />
            <mxPoint x="755" y="1420" as="targetPoint" />
          </mxGeometry>
        </mxCell>
        <mxCell id="GsqYDPgXl572xGJpyq0Q-213" value="" style="endArrow=none;html=1;rounded=0;" parent="1" edge="1">
          <mxGeometry width="50" height="50" relative="1" as="geometry">
            <mxPoint x="392" y="1465" as="sourcePoint" />
            <mxPoint x="392" y="1115" as="targetPoint" />
          </mxGeometry>
        </mxCell>
        <mxCell id="GsqYDPgXl572xGJpyq0Q-219" value="" style="endArrow=classic;html=1;rounded=0;entryX=0;entryY=0.75;entryDx=0;entryDy=0;" parent="1" target="GsqYDPgXl572xGJpyq0Q-204" edge="1">
          <mxGeometry width="50" height="50" relative="1" as="geometry">
            <mxPoint x="390" y="1470" as="sourcePoint" />
            <mxPoint x="440" y="1420" as="targetPoint" />
          </mxGeometry>
        </mxCell>
        <mxCell id="GsqYDPgXl572xGJpyq0Q-220" value="" style="rounded=0;whiteSpace=wrap;html=1;fillColor=#dae8fc;strokeColor=#6c8ebf;" parent="1" vertex="1">
          <mxGeometry x="85" y="2030" width="370" height="210" as="geometry" />
        </mxCell>
        <mxCell id="GsqYDPgXl572xGJpyq0Q-221" value="&lt;div&gt;&lt;font style=&quot;font-size: 14px;&quot;&gt;&lt;b style=&quot;&quot;&gt;namespace&lt;/b&gt;&lt;/font&gt;&lt;/div&gt;&lt;font style=&quot;font-size: 14px;&quot;&gt;&lt;b style=&quot;&quot;&gt;private-gateway-http&lt;/b&gt;&lt;/font&gt;" style="text;html=1;align=center;verticalAlign=middle;whiteSpace=wrap;rounded=0;" parent="1" vertex="1">
          <mxGeometry x="150" y="2050" width="240" height="50" as="geometry" />
        </mxCell>
        <mxCell id="GsqYDPgXl572xGJpyq0Q-222" value="" style="rounded=0;whiteSpace=wrap;html=1;fillColor=#fff2cc;strokeColor=#d6b656;" parent="1" vertex="1">
          <mxGeometry x="220" y="2130" width="215" height="50" as="geometry" />
        </mxCell>
        <mxCell id="GsqYDPgXl572xGJpyq0Q-223" value="&lt;span style=&quot;font-size: 14px;&quot;&gt;&lt;b&gt;kong-gateway-private-common-teams&lt;/b&gt;&lt;/span&gt;" style="text;html=1;align=center;verticalAlign=middle;whiteSpace=wrap;rounded=0;" parent="1" vertex="1">
          <mxGeometry x="230" y="2140" width="185" height="30" as="geometry" />
        </mxCell>
        <mxCell id="GsqYDPgXl572xGJpyq0Q-224" value="" style="rounded=0;whiteSpace=wrap;html=1;fillColor=#dae8fc;strokeColor=#6c8ebf;" parent="1" vertex="1">
          <mxGeometry x="80" y="2260" width="375" height="210" as="geometry" />
        </mxCell>
        <mxCell id="GsqYDPgXl572xGJpyq0Q-225" value="&lt;div&gt;&lt;font style=&quot;font-size: 14px;&quot;&gt;&lt;b style=&quot;&quot;&gt;namespace&lt;/b&gt;&lt;/font&gt;&lt;/div&gt;&lt;b style=&quot;font-size: 14px;&quot;&gt;public-gateway-http&lt;/b&gt;" style="text;html=1;align=center;verticalAlign=middle;whiteSpace=wrap;rounded=0;" parent="1" vertex="1">
          <mxGeometry x="147.5" y="2260" width="240" height="50" as="geometry" />
        </mxCell>
        <mxCell id="GsqYDPgXl572xGJpyq0Q-226" value="" style="rounded=0;whiteSpace=wrap;html=1;fillColor=#fff2cc;strokeColor=#d6b656;" parent="1" vertex="1">
          <mxGeometry x="210" y="2360" width="220" height="60" as="geometry" />
        </mxCell>
        <mxCell id="GsqYDPgXl572xGJpyq0Q-227" value="&lt;b style=&quot;font-size: 14px;&quot;&gt;kong-gateway-common-teams&lt;/b&gt;" style="text;html=1;align=center;verticalAlign=middle;whiteSpace=wrap;rounded=0;" parent="1" vertex="1">
          <mxGeometry x="235" y="2375" width="180" height="30" as="geometry" />
        </mxCell>
        <mxCell id="GsqYDPgXl572xGJpyq0Q-228" value="" style="outlineConnect=0;dashed=0;verticalLabelPosition=bottom;verticalAlign=top;align=center;html=1;shape=mxgraph.aws3.application_load_balancer;fillColor=#F58534;gradientColor=none;" parent="1" vertex="1">
          <mxGeometry x="110" y="2130" width="60" height="56" as="geometry" />
        </mxCell>
        <mxCell id="GsqYDPgXl572xGJpyq0Q-229" value="" style="endArrow=classic;html=1;rounded=0;" parent="1" edge="1">
          <mxGeometry width="50" height="50" relative="1" as="geometry">
            <mxPoint x="177.5" y="2159.5" as="sourcePoint" />
            <mxPoint x="210" y="2160" as="targetPoint" />
          </mxGeometry>
        </mxCell>
        <mxCell id="GsqYDPgXl572xGJpyq0Q-230" value="" style="outlineConnect=0;dashed=0;verticalLabelPosition=bottom;verticalAlign=top;align=center;html=1;shape=mxgraph.aws3.application_load_balancer;fillColor=#F58534;gradientColor=none;" parent="1" vertex="1">
          <mxGeometry x="115" y="2357" width="60" height="56" as="geometry" />
        </mxCell>
        <mxCell id="GsqYDPgXl572xGJpyq0Q-231" value="" style="endArrow=classic;html=1;rounded=0;" parent="1" edge="1">
          <mxGeometry width="50" height="50" relative="1" as="geometry">
            <mxPoint x="180" y="2389.5" as="sourcePoint" />
            <mxPoint x="210" y="2390" as="targetPoint" />
          </mxGeometry>
        </mxCell>
        <mxCell id="GsqYDPgXl572xGJpyq0Q-232" value="" style="rounded=0;whiteSpace=wrap;html=1;fillColor=#dae8fc;strokeColor=#6c8ebf;" parent="1" vertex="1">
          <mxGeometry x="510" y="2050" width="130" height="130" as="geometry" />
        </mxCell>
        <mxCell id="GsqYDPgXl572xGJpyq0Q-233" value="" style="rounded=0;whiteSpace=wrap;html=1;fillColor=#d5e8d4;strokeColor=#82b366;" parent="1" vertex="1">
          <mxGeometry x="525" y="2135" width="100" height="40" as="geometry" />
        </mxCell>
        <mxCell id="GsqYDPgXl572xGJpyq0Q-234" value="&lt;b&gt;&lt;font style=&quot;font-size: 14px;&quot;&gt;HTTPRoute&lt;/font&gt;&lt;/b&gt;" style="text;html=1;align=center;verticalAlign=middle;whiteSpace=wrap;rounded=0;" parent="1" vertex="1">
          <mxGeometry x="530" y="2140" width="90" height="30" as="geometry" />
        </mxCell>
        <mxCell id="GsqYDPgXl572xGJpyq0Q-235" value="&lt;div&gt;&lt;font style=&quot;font-size: 14px;&quot;&gt;&lt;b style=&quot;&quot;&gt;namespace&lt;/b&gt;&lt;/font&gt;&lt;/div&gt;&lt;span style=&quot;font-size: 14px;&quot;&gt;&lt;b&gt;infra&lt;/b&gt;&lt;/span&gt;" style="text;html=1;align=center;verticalAlign=middle;whiteSpace=wrap;rounded=0;" parent="1" vertex="1">
          <mxGeometry x="510" y="2060" width="110" height="50" as="geometry" />
        </mxCell>
        <mxCell id="GsqYDPgXl572xGJpyq0Q-236" value="" style="rounded=0;whiteSpace=wrap;html=1;fillColor=#dae8fc;strokeColor=#6c8ebf;" parent="1" vertex="1">
          <mxGeometry x="680" y="2050" width="130" height="130" as="geometry" />
        </mxCell>
        <mxCell id="GsqYDPgXl572xGJpyq0Q-237" value="" style="rounded=0;whiteSpace=wrap;html=1;fillColor=#bac8d3;strokeColor=#23445d;" parent="1" vertex="1">
          <mxGeometry x="690" y="2135" width="100" height="40" as="geometry" />
        </mxCell>
        <mxCell id="GsqYDPgXl572xGJpyq0Q-238" value="&lt;b style=&quot;font-size: 14px;&quot;&gt;application service&lt;/b&gt;" style="text;html=1;align=center;verticalAlign=middle;whiteSpace=wrap;rounded=0;" parent="1" vertex="1">
          <mxGeometry x="695" y="2140" width="90" height="30" as="geometry" />
        </mxCell>
        <mxCell id="GsqYDPgXl572xGJpyq0Q-239" value="&lt;div&gt;&lt;font style=&quot;font-size: 14px;&quot;&gt;&lt;b style=&quot;&quot;&gt;namespace&lt;/b&gt;&lt;/font&gt;&lt;/div&gt;&lt;span style=&quot;font-size: 14px;&quot;&gt;&lt;b&gt;devops&lt;/b&gt;&lt;/span&gt;" style="text;html=1;align=center;verticalAlign=middle;whiteSpace=wrap;rounded=0;" parent="1" vertex="1">
          <mxGeometry x="680" y="2060" width="110" height="50" as="geometry" />
        </mxCell>
        <mxCell id="GsqYDPgXl572xGJpyq0Q-240" value="" style="endArrow=classic;html=1;rounded=0;entryX=-0.023;entryY=0.854;entryDx=0;entryDy=0;entryPerimeter=0;" parent="1" target="GsqYDPgXl572xGJpyq0Q-236" edge="1">
          <mxGeometry width="50" height="50" relative="1" as="geometry">
            <mxPoint x="630" y="2160" as="sourcePoint" />
            <mxPoint x="680" y="2110" as="targetPoint" />
          </mxGeometry>
        </mxCell>
        <mxCell id="GsqYDPgXl572xGJpyq0Q-241" value="" style="endArrow=classic;html=1;rounded=0;entryX=0.023;entryY=0.846;entryDx=0;entryDy=0;entryPerimeter=0;" parent="1" target="GsqYDPgXl572xGJpyq0Q-232" edge="1">
          <mxGeometry width="50" height="50" relative="1" as="geometry">
            <mxPoint x="440" y="2160" as="sourcePoint" />
            <mxPoint x="490" y="2110" as="targetPoint" />
          </mxGeometry>
        </mxCell>
        <mxCell id="GsqYDPgXl572xGJpyq0Q-242" value="" style="rounded=0;whiteSpace=wrap;html=1;fillColor=#dae8fc;strokeColor=#6c8ebf;" parent="1" vertex="1">
          <mxGeometry x="505" y="2190" width="310" height="130" as="geometry" />
        </mxCell>
        <mxCell id="GsqYDPgXl572xGJpyq0Q-243" value="" style="rounded=0;whiteSpace=wrap;html=1;fillColor=#d5e8d4;strokeColor=#82b366;" parent="1" vertex="1">
          <mxGeometry x="515" y="2250" width="100" height="40" as="geometry" />
        </mxCell>
        <mxCell id="GsqYDPgXl572xGJpyq0Q-244" value="&lt;b&gt;&lt;font style=&quot;font-size: 14px;&quot;&gt;HTTPRoute&lt;/font&gt;&lt;/b&gt;" style="text;html=1;align=center;verticalAlign=middle;whiteSpace=wrap;rounded=0;" parent="1" vertex="1">
          <mxGeometry x="520" y="2255" width="90" height="30" as="geometry" />
        </mxCell>
        <mxCell id="GsqYDPgXl572xGJpyq0Q-245" value="&lt;div&gt;&lt;font style=&quot;font-size: 14px;&quot;&gt;&lt;b style=&quot;&quot;&gt;namespace&lt;/b&gt;&lt;/font&gt;&lt;/div&gt;&lt;span style=&quot;font-size: 14px;&quot;&gt;&lt;b&gt;frontend&lt;/b&gt;&lt;/span&gt;" style="text;html=1;align=center;verticalAlign=middle;whiteSpace=wrap;rounded=0;" parent="1" vertex="1">
          <mxGeometry x="595" y="2190" width="110" height="50" as="geometry" />
        </mxCell>
        <mxCell id="GsqYDPgXl572xGJpyq0Q-246" value="" style="rounded=0;whiteSpace=wrap;html=1;fillColor=#bac8d3;strokeColor=#23445d;" parent="1" vertex="1">
          <mxGeometry x="665" y="2250" width="120" height="40" as="geometry" />
        </mxCell>
        <mxCell id="GsqYDPgXl572xGJpyq0Q-247" value="&lt;span style=&quot;font-size: 14px;&quot;&gt;&lt;b&gt;application service&lt;/b&gt;&lt;/span&gt;" style="text;html=1;align=center;verticalAlign=middle;whiteSpace=wrap;rounded=0;" parent="1" vertex="1">
          <mxGeometry x="680" y="2255" width="90" height="30" as="geometry" />
        </mxCell>
        <mxCell id="GsqYDPgXl572xGJpyq0Q-248" value="" style="endArrow=classic;html=1;rounded=0;entryX=0;entryY=0.5;entryDx=0;entryDy=0;" parent="1" target="GsqYDPgXl572xGJpyq0Q-246" edge="1">
          <mxGeometry width="50" height="50" relative="1" as="geometry">
            <mxPoint x="625" y="2270" as="sourcePoint" />
            <mxPoint x="675" y="2220" as="targetPoint" />
          </mxGeometry>
        </mxCell>
        <mxCell id="GsqYDPgXl572xGJpyq0Q-249" value="" style="endArrow=classic;html=1;rounded=0;entryX=0.003;entryY=0.631;entryDx=0;entryDy=0;entryPerimeter=0;" parent="1" target="GsqYDPgXl572xGJpyq0Q-242" edge="1">
          <mxGeometry width="50" height="50" relative="1" as="geometry">
            <mxPoint x="440" y="2160" as="sourcePoint" />
            <mxPoint x="490" y="2110" as="targetPoint" />
          </mxGeometry>
        </mxCell>
        <mxCell id="GsqYDPgXl572xGJpyq0Q-260" value="" style="rounded=0;whiteSpace=wrap;html=1;fillColor=#fad9d5;strokeColor=#ae4132;" parent="1" vertex="1">
          <mxGeometry x="-500" y="2131.5" width="520" height="48.5" as="geometry" />
        </mxCell>
        <mxCell id="GsqYDPgXl572xGJpyq0Q-261" value="Client" style="sketch=0;outlineConnect=0;fontColor=#232F3E;gradientColor=none;strokeColor=#232F3E;fillColor=#ffffff;dashed=0;verticalLabelPosition=bottom;verticalAlign=top;align=center;html=1;fontSize=12;fontStyle=0;aspect=fixed;shape=mxgraph.aws4.resourceIcon;resIcon=mxgraph.aws4.client;" parent="1" vertex="1">
          <mxGeometry x="-680" y="2125" width="60" height="60" as="geometry" />
        </mxCell>
        <mxCell id="GsqYDPgXl572xGJpyq0Q-262" value="&lt;p style=&quot;margin: 0px; font-variant-numeric: normal; font-variant-east-asian: normal; font-variant-alternates: normal; font-size-adjust: none; font-kerning: auto; font-optical-sizing: auto; font-feature-settings: normal; font-variation-settings: normal; font-variant-position: normal; font-variant-emoji: normal; font-stretch: normal; line-height: normal; font-family: Menlo; text-align: start;&quot; class=&quot;p1&quot;&gt;&lt;span style=&quot;font-variant-ligatures: no-common-ligatures;&quot; class=&quot;s1&quot;&gt;&lt;font style=&quot;font-size: 14px;&quot;&gt;&lt;b&gt;http://gateway-api-pri-infra.tajawal-dev.internal/&lt;span style=&quot;&quot; class=&quot;Apple-converted-space&quot;&gt;&amp;nbsp; &amp;nbsp;&lt;/span&gt;&lt;/b&gt;&lt;/font&gt;&lt;/span&gt;&lt;/p&gt;" style="text;html=1;align=center;verticalAlign=middle;whiteSpace=wrap;rounded=0;" parent="1" vertex="1">
          <mxGeometry x="-485" y="2143" width="490" height="30" as="geometry" />
        </mxCell>
        <mxCell id="GsqYDPgXl572xGJpyq0Q-263" value="" style="endArrow=classic;html=1;rounded=0;" parent="1" edge="1">
          <mxGeometry width="50" height="50" relative="1" as="geometry">
            <mxPoint x="-600" y="2155" as="sourcePoint" />
            <mxPoint x="-530" y="2154.5" as="targetPoint" />
          </mxGeometry>
        </mxCell>
        <mxCell id="GsqYDPgXl572xGJpyq0Q-264" value="" style="endArrow=classic;html=1;rounded=0;entryX=0;entryY=0.5;entryDx=0;entryDy=0;entryPerimeter=0;" parent="1" target="GsqYDPgXl572xGJpyq0Q-228" edge="1">
          <mxGeometry width="50" height="50" relative="1" as="geometry">
            <mxPoint x="20" y="2160" as="sourcePoint" />
            <mxPoint x="70" y="2110" as="targetPoint" />
          </mxGeometry>
        </mxCell>
        <mxCell id="GsqYDPgXl572xGJpyq0Q-265" value="" style="rounded=0;whiteSpace=wrap;html=1;fillColor=#fad9d5;strokeColor=#ae4132;" parent="1" vertex="1">
          <mxGeometry x="-500" y="2223" width="520" height="47" as="geometry" />
        </mxCell>
        <mxCell id="GsqYDPgXl572xGJpyq0Q-266" value="Client" style="sketch=0;outlineConnect=0;fontColor=#232F3E;gradientColor=none;strokeColor=#232F3E;fillColor=#ffffff;dashed=0;verticalLabelPosition=bottom;verticalAlign=top;align=center;html=1;fontSize=12;fontStyle=0;aspect=fixed;shape=mxgraph.aws4.resourceIcon;resIcon=mxgraph.aws4.client;" parent="1" vertex="1">
          <mxGeometry x="-680" y="2225" width="60" height="60" as="geometry" />
        </mxCell>
        <mxCell id="GsqYDPgXl572xGJpyq0Q-267" value="&lt;p style=&quot;margin: 0px; font-variant-numeric: normal; font-variant-east-asian: normal; font-variant-alternates: normal; font-size-adjust: none; font-kerning: auto; font-optical-sizing: auto; font-feature-settings: normal; font-variation-settings: normal; font-variant-position: normal; font-variant-emoji: normal; font-stretch: normal; line-height: normal; font-family: Menlo; text-align: start;&quot; class=&quot;p1&quot;&gt;&lt;span style=&quot;font-variant-ligatures: no-common-ligatures;&quot; class=&quot;s1&quot;&gt;&lt;font style=&quot;font-size: 14px;&quot;&gt;&lt;b&gt;https://gateway-api-pri-frontend.&lt;/b&gt;&lt;/font&gt;&lt;/span&gt;&lt;b style=&quot;background-color: initial; font-size: 14px; font-variant-ligatures: no-common-ligatures;&quot;&gt;tajawal-dev.internal&lt;/b&gt;&lt;b style=&quot;font-size: 14px; font-variant-ligatures: no-common-ligatures; background-color: initial;&quot;&gt;/&lt;span class=&quot;Apple-converted-space&quot;&gt;&amp;nbsp; &amp;nbsp;&lt;/span&gt;&lt;/b&gt;&lt;/p&gt;" style="text;html=1;align=center;verticalAlign=middle;whiteSpace=wrap;rounded=0;" parent="1" vertex="1">
          <mxGeometry x="-490" y="2240" width="480" height="30" as="geometry" />
        </mxCell>
        <mxCell id="GsqYDPgXl572xGJpyq0Q-268" value="" style="endArrow=classic;html=1;rounded=0;" parent="1" edge="1">
          <mxGeometry width="50" height="50" relative="1" as="geometry">
            <mxPoint x="-610" y="2255" as="sourcePoint" />
            <mxPoint x="-530" y="2254.5" as="targetPoint" />
          </mxGeometry>
        </mxCell>
        <mxCell id="GsqYDPgXl572xGJpyq0Q-269" value="" style="endArrow=classic;html=1;rounded=0;entryX=0.145;entryY=0.855;entryDx=0;entryDy=0;entryPerimeter=0;" parent="1" target="GsqYDPgXl572xGJpyq0Q-228" edge="1">
          <mxGeometry width="50" height="50" relative="1" as="geometry">
            <mxPoint x="20" y="2250" as="sourcePoint" />
            <mxPoint x="70" y="2200" as="targetPoint" />
          </mxGeometry>
        </mxCell>
        <mxCell id="GsqYDPgXl572xGJpyq0Q-280" value="" style="rounded=0;whiteSpace=wrap;html=1;fillColor=#dae8fc;strokeColor=#6c8ebf;" parent="1" vertex="1">
          <mxGeometry x="507.5" y="2340" width="305" height="130" as="geometry" />
        </mxCell>
        <mxCell id="GsqYDPgXl572xGJpyq0Q-281" value="" style="rounded=0;whiteSpace=wrap;html=1;fillColor=#e1d5e7;strokeColor=#9673a6;" parent="1" vertex="1">
          <mxGeometry x="522.5" y="2400" width="100" height="40" as="geometry" />
        </mxCell>
        <mxCell id="GsqYDPgXl572xGJpyq0Q-282" value="&lt;b&gt;&lt;font style=&quot;font-size: 14px;&quot;&gt;TCPRoute&lt;/font&gt;&lt;/b&gt;" style="text;html=1;align=center;verticalAlign=middle;whiteSpace=wrap;rounded=0;" parent="1" vertex="1">
          <mxGeometry x="522.5" y="2405" width="90" height="30" as="geometry" />
        </mxCell>
        <mxCell id="GsqYDPgXl572xGJpyq0Q-283" value="&lt;div&gt;&lt;font style=&quot;font-size: 14px;&quot;&gt;&lt;b style=&quot;&quot;&gt;namespace&lt;/b&gt;&lt;/font&gt;&lt;/div&gt;&lt;span style=&quot;font-size: 14px;&quot;&gt;&lt;b&gt;frontend&lt;/b&gt;&lt;/span&gt;" style="text;html=1;align=center;verticalAlign=middle;whiteSpace=wrap;rounded=0;" parent="1" vertex="1">
          <mxGeometry x="597.5" y="2340" width="110" height="50" as="geometry" />
        </mxCell>
        <mxCell id="GsqYDPgXl572xGJpyq0Q-284" value="" style="rounded=0;whiteSpace=wrap;html=1;fillColor=#bac8d3;strokeColor=#23445d;" parent="1" vertex="1">
          <mxGeometry x="667.5" y="2400" width="120" height="40" as="geometry" />
        </mxCell>
        <mxCell id="GsqYDPgXl572xGJpyq0Q-285" value="&lt;span style=&quot;font-size: 14px;&quot;&gt;&lt;b&gt;application service&lt;/b&gt;&lt;/span&gt;" style="text;html=1;align=center;verticalAlign=middle;whiteSpace=wrap;rounded=0;" parent="1" vertex="1">
          <mxGeometry x="682.5" y="2405" width="90" height="30" as="geometry" />
        </mxCell>
        <mxCell id="GsqYDPgXl572xGJpyq0Q-286" value="" style="endArrow=classic;html=1;rounded=0;entryX=0;entryY=0.5;entryDx=0;entryDy=0;" parent="1" target="GsqYDPgXl572xGJpyq0Q-284" edge="1">
          <mxGeometry width="50" height="50" relative="1" as="geometry">
            <mxPoint x="627.5" y="2420" as="sourcePoint" />
            <mxPoint x="677.5" y="2370" as="targetPoint" />
          </mxGeometry>
        </mxCell>
        <mxCell id="GsqYDPgXl572xGJpyq0Q-304" value="" style="rounded=0;whiteSpace=wrap;html=1;fillColor=#fad9d5;strokeColor=#ae4132;" parent="1" vertex="1">
          <mxGeometry x="-510" y="2357" width="380" height="60" as="geometry" />
        </mxCell>
        <mxCell id="GsqYDPgXl572xGJpyq0Q-305" value="Client" style="sketch=0;outlineConnect=0;fontColor=#232F3E;gradientColor=none;strokeColor=#232F3E;fillColor=#ffffff;dashed=0;verticalLabelPosition=bottom;verticalAlign=top;align=center;html=1;fontSize=12;fontStyle=0;aspect=fixed;shape=mxgraph.aws4.resourceIcon;resIcon=mxgraph.aws4.client;" parent="1" vertex="1">
          <mxGeometry x="-680" y="2360" width="60" height="60" as="geometry" />
        </mxCell>
        <mxCell id="GsqYDPgXl572xGJpyq0Q-306" value="&lt;p style=&quot;margin: 0px; font-variant-numeric: normal; font-variant-east-asian: normal; font-variant-alternates: normal; font-size-adjust: none; font-kerning: auto; font-optical-sizing: auto; font-feature-settings: normal; font-variation-settings: normal; font-variant-position: normal; font-variant-emoji: normal; font-stretch: normal; line-height: normal; font-family: Menlo; text-align: start;&quot; class=&quot;p1&quot;&gt;&lt;span style=&quot;font-variant-ligatures: no-common-ligatures;&quot; class=&quot;s1&quot;&gt;&lt;font style=&quot;font-size: 14px;&quot;&gt;&lt;b&gt;https://gateway-api-frontend.tajawal.io/&lt;span style=&quot;&quot; class=&quot;Apple-converted-space&quot;&gt;&amp;nbsp; &amp;nbsp;&lt;/span&gt;&lt;/b&gt;&lt;/font&gt;&lt;/span&gt;&lt;/p&gt;" style="text;html=1;align=center;verticalAlign=middle;whiteSpace=wrap;rounded=0;" parent="1" vertex="1">
          <mxGeometry x="-500" y="2372" width="370" height="30" as="geometry" />
        </mxCell>
        <mxCell id="GsqYDPgXl572xGJpyq0Q-307" value="" style="endArrow=classic;html=1;rounded=0;" parent="1" edge="1">
          <mxGeometry width="50" height="50" relative="1" as="geometry">
            <mxPoint x="-600" y="2386.5" as="sourcePoint" />
            <mxPoint x="-540" y="2386.5" as="targetPoint" />
          </mxGeometry>
        </mxCell>
        <mxCell id="GsqYDPgXl572xGJpyq0Q-308" value="" style="endArrow=classic;html=1;rounded=0;" parent="1" edge="1">
          <mxGeometry width="50" height="50" relative="1" as="geometry">
            <mxPoint x="-130" y="2390" as="sourcePoint" />
            <mxPoint x="110" y="2390" as="targetPoint" />
          </mxGeometry>
        </mxCell>
        <mxCell id="GsqYDPgXl572xGJpyq0Q-309" value="" style="endArrow=classic;html=1;rounded=0;entryX=0;entryY=0.5;entryDx=0;entryDy=0;" parent="1" target="GsqYDPgXl572xGJpyq0Q-282" edge="1">
          <mxGeometry width="50" height="50" relative="1" as="geometry">
            <mxPoint x="430" y="2390" as="sourcePoint" />
            <mxPoint x="480" y="2340" as="targetPoint" />
          </mxGeometry>
        </mxCell>
      </root>
    </mxGraphModel>
  </diagram>
</mxfile>
